<?xml version="1.0" encoding="us-ascii" standalone="no"?><svg xmlns="http://www.w3.org/2000/svg" xmlns:xlink="http://www.w3.org/1999/xlink" contentStyleType="text/css" height="2679px" preserveAspectRatio="none" style="width:1469px;height:2679px;background:#FFFFFF;" version="1.1" viewBox="0 0 1469 2679" width="1469px" zoomAndPan="magnify"><defs/><g><!--cluster App--><g id="cluster_App"><path d="M311.5,74 L343.5,74 A3.75,3.75 0 0 1 346,76.5 L353,96.2969 L1459.5,96.2969 A2.5,2.5 0 0 1 1462,98.7969 L1462,2669.5 A2.5,2.5 0 0 1 1459.5,2672 L311.5,2672 A2.5,2.5 0 0 1 309,2669.5 L309,76.5 A2.5,2.5 0 0 1 311.5,74 " fill="none" style="stroke:#000000;stroke-width:1.5;"/><line style="stroke:#000000;stroke-width:1.5;" x1="309" x2="353" y1="96.2969" y2="96.2969"/><text fill="#000000" font-family="sans-serif" font-size="14" font-weight="bold" lengthAdjust="spacing" textLength="31" x="313" y="88.9951">App</text></g><!--cluster Commands--><g id="cluster_Commands"><path d="M375,117 L463,117 A3.75,3.75 0 0 1 465.5,119.5 L472.5,139.2969 L617,139.2969 A2.5,2.5 0 0 1 619.5,141.7969 L619.5,264.5 A2.5,2.5 0 0 1 617,267 L375,267 A2.5,2.5 0 0 1 372.5,264.5 L372.5,119.5 A2.5,2.5 0 0 1 375,117 " fill="none" style="stroke:#000000;stroke-width:1.5;"/><line style="stroke:#000000;stroke-width:1.5;" x1="372.5" x2="472.5" y1="139.2969" y2="139.2969"/><text fill="#000000" font-family="sans-serif" font-size="14" font-weight="bold" lengthAdjust="spacing" textLength="87" x="376.5" y="131.9951">Commands</text></g><!--cluster Database--><g id="cluster_Database"><path d="M663.5,2230 L737.5,2230 A3.75,3.75 0 0 1 740,2232.5 L747,2252.2969 L1202,2252.2969 A2.5,2.5 0 0 1 1204.5,2254.7969 L1204.5,2645.5 A2.5,2.5 0 0 1 1202,2648 L663.5,2648 A2.5,2.5 0 0 1 661,2645.5 L661,2232.5 A2.5,2.5 0 0 1 663.5,2230 " fill="none" style="stroke:#000000;stroke-width:1.5;"/><line style="stroke:#000000;stroke-width:1.5;" x1="661" x2="747" y1="2252.2969" y2="2252.2969"/><text fill="#000000" font-family="sans-serif" font-size="14" font-weight="bold" lengthAdjust="spacing" textLength="73" x="665" y="2244.9951">Database</text></g><!--cluster Helpers--><g id="cluster_Helpers"><path d="M444,291 L506,291 A3.75,3.75 0 0 1 508.5,293.5 L515.5,313.2969 L548,313.2969 A2.5,2.5 0 0 1 550.5,315.7969 L550.5,438.5 A2.5,2.5 0 0 1 548,441 L444,441 A2.5,2.5 0 0 1 441.5,438.5 L441.5,293.5 A2.5,2.5 0 0 1 444,291 " fill="none" style="stroke:#000000;stroke-width:1.5;"/><line style="stroke:#000000;stroke-width:1.5;" x1="441.5" x2="515.5" y1="313.2969" y2="313.2969"/><text fill="#000000" font-family="sans-serif" font-size="14" font-weight="bold" lengthAdjust="spacing" textLength="61" x="445.5" y="305.9951">Helpers</text></g><!--cluster Http--><g id="cluster_Http"><path d="M335.5,465 L369.5,465 A3.75,3.75 0 0 1 372,467.5 L379,487.2969 L1233.5,487.2969 A2.5,2.5 0 0 1 1236,489.7969 L1236,1180.5 A2.5,2.5 0 0 1 1233.5,1183 L335.5,1183 A2.5,2.5 0 0 1 333,1180.5 L333,467.5 A2.5,2.5 0 0 1 335.5,465 " fill="none" style="stroke:#000000;stroke-width:1.5;"/><line style="stroke:#000000;stroke-width:1.5;" x1="333" x2="379" y1="487.2969" y2="487.2969"/><text fill="#000000" font-family="sans-serif" font-size="14" font-weight="bold" lengthAdjust="spacing" textLength="33" x="337" y="479.9951">Http</text></g><!--cluster Controllers--><g id="cluster_Controllers"><path d="M409,508 L498,508 A3.75,3.75 0 0 1 500.5,510.5 L507.5,530.2969 L909.5,530.2969 A2.5,2.5 0 0 1 912,532.7969 L912,848.5 A2.5,2.5 0 0 1 909.5,851 L409,851 A2.5,2.5 0 0 1 406.5,848.5 L406.5,510.5 A2.5,2.5 0 0 1 409,508 " fill="none" style="stroke:#000000;stroke-width:1.5;"/><line style="stroke:#000000;stroke-width:1.5;" x1="406.5" x2="507.5" y1="530.2969" y2="530.2969"/><text fill="#000000" font-family="sans-serif" font-size="14" font-weight="bold" lengthAdjust="spacing" textLength="88" x="410.5" y="522.9951">Controllers</text></g><!--cluster Concerns--><g id="cluster_Concerns"><path d="M433,551 L510,551 A3.75,3.75 0 0 1 512.5,553.5 L519.5,573.2969 L559,573.2969 A2.5,2.5 0 0 1 561.5,575.7969 L561.5,714.5 A2.5,2.5 0 0 1 559,717 L433,717 A2.5,2.5 0 0 1 430.5,714.5 L430.5,553.5 A2.5,2.5 0 0 1 433,551 " fill="none" style="stroke:#000000;stroke-width:1.5;"/><line style="stroke:#000000;stroke-width:1.5;" x1="430.5" x2="519.5" y1="573.2969" y2="573.2969"/><text fill="#000000" font-family="sans-serif" font-size="14" font-weight="bold" lengthAdjust="spacing" textLength="76" x="434.5" y="565.9951">Concerns</text></g><!--cluster Requests--><g id="cluster_Requests"><path d="M359.5,875 L434.5,875 A3.75,3.75 0 0 1 437,877.5 L444,897.2969 L1209.5,897.2969 A2.5,2.5 0 0 1 1212,899.7969 L1212,1156.5 A2.5,2.5 0 0 1 1209.5,1159 L359.5,1159 A2.5,2.5 0 0 1 357,1156.5 L357,877.5 A2.5,2.5 0 0 1 359.5,875 " fill="none" style="stroke:#000000;stroke-width:1.5;"/><line style="stroke:#000000;stroke-width:1.5;" x1="357" x2="444" y1="897.2969" y2="897.2969"/><text fill="#000000" font-family="sans-serif" font-size="14" font-weight="bold" lengthAdjust="spacing" textLength="74" x="361" y="889.9951">Requests</text></g><!--cluster Validator--><g id="cluster_Validator"><path d="M383.5,918 L454.5,918 A3.75,3.75 0 0 1 457,920.5 L464,940.2969 L608.5,940.2969 A2.5,2.5 0 0 1 611,942.7969 L611,1065.5 A2.5,2.5 0 0 1 608.5,1068 L383.5,1068 A2.5,2.5 0 0 1 381,1065.5 L381,920.5 A2.5,2.5 0 0 1 383.5,918 " fill="none" style="stroke:#000000;stroke-width:1.5;"/><line style="stroke:#000000;stroke-width:1.5;" x1="381" x2="464" y1="940.2969" y2="940.2969"/><text fill="#000000" font-family="sans-serif" font-size="14" font-weight="bold" lengthAdjust="spacing" textLength="70" x="385" y="932.9951">Validator</text></g><!--cluster Rules--><g id="cluster_Rules"><path d="M407.5,961 L451.5,961 A3.75,3.75 0 0 1 454,963.5 L461,983.2969 L584.5,983.2969 A2.5,2.5 0 0 1 587,985.7969 L587,1041.5 A2.5,2.5 0 0 1 584.5,1044 L407.5,1044 A2.5,2.5 0 0 1 405,1041.5 L405,963.5 A2.5,2.5 0 0 1 407.5,961 " fill="none" style="stroke:#000000;stroke-width:1.5;"/><line style="stroke:#000000;stroke-width:1.5;" x1="405" x2="461" y1="983.2969" y2="983.2969"/><text fill="#000000" font-family="sans-serif" font-size="14" font-weight="bold" lengthAdjust="spacing" textLength="43" x="409" y="975.9951">Rules</text></g><!--cluster Importers--><g id="cluster_Importers"><path d="M337.5,1207 L415.5,1207 A3.75,3.75 0 0 1 418,1209.5 L425,1229.2969 L1182.5,1229.2969 A2.5,2.5 0 0 1 1185,1231.7969 L1185,1855.5 A2.5,2.5 0 0 1 1182.5,1858 L337.5,1858 A2.5,2.5 0 0 1 335,1855.5 L335,1209.5 A2.5,2.5 0 0 1 337.5,1207 " fill="none" style="stroke:#000000;stroke-width:1.5;"/><line style="stroke:#000000;stroke-width:1.5;" x1="335" x2="425" y1="1229.2969" y2="1229.2969"/><text fill="#000000" font-family="sans-serif" font-size="14" font-weight="bold" lengthAdjust="spacing" textLength="77" x="339" y="1221.9951">Importers</text></g><!--cluster Concerns--><g id="cluster_Concerns"><path d="M407,1250 L484,1250 A3.75,3.75 0 0 1 486.5,1252.5 L493.5,1272.2969 L585,1272.2969 A2.5,2.5 0 0 1 587.5,1274.7969 L587.5,1413.5 A2.5,2.5 0 0 1 585,1416 L407,1416 A2.5,2.5 0 0 1 404.5,1413.5 L404.5,1252.5 A2.5,2.5 0 0 1 407,1250 " fill="none" style="stroke:#000000;stroke-width:1.5;"/><line style="stroke:#000000;stroke-width:1.5;" x1="404.5" x2="493.5" y1="1272.2969" y2="1272.2969"/><text fill="#000000" font-family="sans-serif" font-size="14" font-weight="bold" lengthAdjust="spacing" textLength="76" x="408.5" y="1264.9951">Concerns</text></g><!--cluster SourceReaders--><g id="cluster_SourceReaders"><path d="M361.5,1440 L483.5,1440 A3.75,3.75 0 0 1 486,1442.5 L493,1462.2969 L950,1462.2969 A2.5,2.5 0 0 1 952.5,1464.7969 L952.5,1721.5 A2.5,2.5 0 0 1 950,1724 L361.5,1724 A2.5,2.5 0 0 1 359,1721.5 L359,1442.5 A2.5,2.5 0 0 1 361.5,1440 " fill="none" style="stroke:#000000;stroke-width:1.5;"/><line style="stroke:#000000;stroke-width:1.5;" x1="359" x2="493" y1="1462.2969" y2="1462.2969"/><text fill="#000000" font-family="sans-serif" font-size="14" font-weight="bold" lengthAdjust="spacing" textLength="121" x="363" y="1454.9951">SourceReaders</text></g><!--cluster Repositories--><g id="cluster_Repositories"><path d="M700,1922 L800,1922 A3.75,3.75 0 0 1 802.5,1924.5 L809.5,1944.2969 L1435.5,1944.2969 A2.5,2.5 0 0 1 1438,1946.7969 L1438,2203.5 A2.5,2.5 0 0 1 1435.5,2206 L700,2206 A2.5,2.5 0 0 1 697.5,2203.5 L697.5,1924.5 A2.5,2.5 0 0 1 700,1922 " fill="none" style="stroke:#000000;stroke-width:1.5;"/><line style="stroke:#000000;stroke-width:1.5;" x1="697.5" x2="809.5" y1="1944.2969" y2="1944.2969"/><text fill="#000000" font-family="sans-serif" font-size="14" font-weight="bold" lengthAdjust="spacing" textLength="99" x="701.5" y="1936.9951">Repositories</text></g><!--cluster Symfony--><g id="cluster_Symfony"><path d="M8.5,55 L77.5,55 A3.75,3.75 0 0 1 80,57.5 L87,77.2969 L282.5,77.2969 A2.5,2.5 0 0 1 285,79.7969 L285,336.5 A2.5,2.5 0 0 1 282.5,339 L8.5,339 A2.5,2.5 0 0 1 6,336.5 L6,57.5 A2.5,2.5 0 0 1 8.5,55 " fill="none" style="stroke:#000000;stroke-width:1.5;"/><line style="stroke:#000000;stroke-width:1.5;" x1="6" x2="87" y1="77.2969" y2="77.2969"/><text fill="#000000" font-family="sans-serif" font-size="14" font-weight="bold" lengthAdjust="spacing" textLength="68" x="10" y="69.9951">Symfony</text></g><!--cluster Component--><g id="cluster_Component"><path d="M32.5,98 L124.5,98 A3.75,3.75 0 0 1 127,100.5 L134,120.2969 L258.5,120.2969 A2.5,2.5 0 0 1 261,122.7969 L261,312.5 A2.5,2.5 0 0 1 258.5,315 L32.5,315 A2.5,2.5 0 0 1 30,312.5 L30,100.5 A2.5,2.5 0 0 1 32.5,98 " fill="none" style="stroke:#000000;stroke-width:1.5;"/><line style="stroke:#000000;stroke-width:1.5;" x1="30" x2="134" y1="120.2969" y2="120.2969"/><text fill="#000000" font-family="sans-serif" font-size="14" font-weight="bold" lengthAdjust="spacing" textLength="91" x="34" y="112.9951">Component</text></g><!--cluster Console--><g id="cluster_Console"><path d="M56.5,141 L121.5,141 A3.75,3.75 0 0 1 124,143.5 L131,163.2969 L234.5,163.2969 A2.5,2.5 0 0 1 237,165.7969 L237,288.5 A2.5,2.5 0 0 1 234.5,291 L56.5,291 A2.5,2.5 0 0 1 54,288.5 L54,143.5 A2.5,2.5 0 0 1 56.5,141 " fill="none" style="stroke:#000000;stroke-width:1.5;"/><line style="stroke:#000000;stroke-width:1.5;" x1="54" x2="131" y1="163.2969" y2="163.2969"/><text fill="#000000" font-family="sans-serif" font-size="14" font-weight="bold" lengthAdjust="spacing" textLength="64" x="58" y="155.9951">Console</text></g><!--cluster Command--><g id="cluster_Command"><path d="M80.5,184 L159.5,184 A3.75,3.75 0 0 1 162,186.5 L169,206.2969 L210.5,206.2969 A2.5,2.5 0 0 1 213,208.7969 L213,264.5 A2.5,2.5 0 0 1 210.5,267 L80.5,267 A2.5,2.5 0 0 1 78,264.5 L78,186.5 A2.5,2.5 0 0 1 80.5,184 " fill="none" style="stroke:#000000;stroke-width:1.5;"/><line style="stroke:#000000;stroke-width:1.5;" x1="78" x2="169" y1="206.2969" y2="206.2969"/><text fill="#000000" font-family="sans-serif" font-size="14" font-weight="bold" lengthAdjust="spacing" textLength="78" x="82" y="198.9951">Command</text></g><!--cluster Respect--><g id="cluster_Respect"><path d="M24,875 L89,875 A3.75,3.75 0 0 1 91.5,877.5 L98.5,897.2969 L267,897.2969 A2.5,2.5 0 0 1 269.5,899.7969 L269.5,1089.5 A2.5,2.5 0 0 1 267,1092 L24,1092 A2.5,2.5 0 0 1 21.5,1089.5 L21.5,877.5 A2.5,2.5 0 0 1 24,875 " fill="none" style="stroke:#000000;stroke-width:1.5;"/><line style="stroke:#000000;stroke-width:1.5;" x1="21.5" x2="98.5" y1="897.2969" y2="897.2969"/><text fill="#000000" font-family="sans-serif" font-size="14" font-weight="bold" lengthAdjust="spacing" textLength="64" x="25.5" y="889.9951">Respect</text></g><!--cluster Validation--><g id="cluster_Validation"><path d="M48,918 L126,918 A3.75,3.75 0 0 1 128.5,920.5 L135.5,940.2969 L243,940.2969 A2.5,2.5 0 0 1 245.5,942.7969 L245.5,1065.5 A2.5,2.5 0 0 1 243,1068 L48,1068 A2.5,2.5 0 0 1 45.5,1065.5 L45.5,920.5 A2.5,2.5 0 0 1 48,918 " fill="none" style="stroke:#000000;stroke-width:1.5;"/><line style="stroke:#000000;stroke-width:1.5;" x1="45.5" x2="135.5" y1="940.2969" y2="940.2969"/><text fill="#000000" font-family="sans-serif" font-size="14" font-weight="bold" lengthAdjust="spacing" textLength="77" x="49.5" y="932.9951">Validation</text></g><!--cluster Rules--><g id="cluster_Rules"><path d="M72,961 L116,961 A3.75,3.75 0 0 1 118.5,963.5 L125.5,983.2969 L219,983.2969 A2.5,2.5 0 0 1 221.5,985.7969 L221.5,1041.5 A2.5,2.5 0 0 1 219,1044 L72,1044 A2.5,2.5 0 0 1 69.5,1041.5 L69.5,963.5 A2.5,2.5 0 0 1 72,961 " fill="none" style="stroke:#000000;stroke-width:1.5;"/><line style="stroke:#000000;stroke-width:1.5;" x1="69.5" x2="125.5" y1="983.2969" y2="983.2969"/><text fill="#000000" font-family="sans-serif" font-size="14" font-weight="bold" lengthAdjust="spacing" textLength="43" x="73.5" y="975.9951">Rules</text></g><!--class Config--><g id="elem_Config"><rect codeLine="15" fill="#F1F1F1" height="32" id="Config" rx="2.5" ry="2.5" style="stroke:#181818;stroke-width:0.5;" width="76" x="458" y="1914"/><ellipse cx="473" cy="1930" fill="#ADD1B2" rx="11" ry="11" style="stroke:#181818;stroke-width:1.0;"/><path d="M475.9688,1935.6406 Q475.3906,1935.9375 474.75,1936.0781 Q474.1094,1936.2344 473.4063,1936.2344 Q470.9063,1936.2344 469.5781,1934.5938 Q468.2656,1932.9375 468.2656,1929.8125 Q468.2656,1926.6875 469.5781,1925.0313 Q470.9063,1923.375 473.4063,1923.375 Q474.1094,1923.375 474.75,1923.5313 Q475.4063,1923.6875 475.9688,1923.9844 L475.9688,1926.7031 Q475.3438,1926.125 474.75,1925.8594 Q474.1563,1925.5781 473.5313,1925.5781 Q472.1875,1925.5781 471.5,1926.6563 Q470.8125,1927.7188 470.8125,1929.8125 Q470.8125,1931.9063 471.5,1932.9844 Q472.1875,1934.0469 473.5313,1934.0469 Q474.1563,1934.0469 474.75,1933.7813 Q475.3438,1933.5 475.9688,1932.9219 L475.9688,1935.6406 Z " fill="#000000"/><text fill="#000000" font-family="sans-serif" font-size="14" lengthAdjust="spacing" textLength="44" x="487" y="1934.8467">Config</text></g><!--class Exception--><g id="elem_Exception"><rect codeLine="18" fill="#F1F1F1" height="32" id="Exception" rx="2.5" ry="2.5" style="stroke:#181818;stroke-width:0.5;" width="100" x="446" y="2054"/><ellipse cx="461" cy="2070" fill="#ADD1B2" rx="11" ry="11" style="stroke:#181818;stroke-width:1.0;"/><path d="M463.9688,2075.6406 Q463.3906,2075.9375 462.75,2076.0781 Q462.1094,2076.2344 461.4063,2076.2344 Q458.9063,2076.2344 457.5781,2074.5938 Q456.2656,2072.9375 456.2656,2069.8125 Q456.2656,2066.6875 457.5781,2065.0313 Q458.9063,2063.375 461.4063,2063.375 Q462.1094,2063.375 462.75,2063.5313 Q463.4063,2063.6875 463.9688,2063.9844 L463.9688,2066.7031 Q463.3438,2066.125 462.75,2065.8594 Q462.1563,2065.5781 461.5313,2065.5781 Q460.1875,2065.5781 459.5,2066.6563 Q458.8125,2067.7188 458.8125,2069.8125 Q458.8125,2071.9063 459.5,2072.9844 Q460.1875,2074.0469 461.5313,2074.0469 Q462.1563,2074.0469 462.75,2073.7813 Q463.3438,2073.5 463.9688,2072.9219 L463.9688,2075.6406 Z " fill="#000000"/><text fill="#000000" font-family="sans-serif" font-size="14" lengthAdjust="spacing" textLength="68" x="475" y="2074.8467">Exception</text></g><!--class UnsupportedFeatureException--><g id="elem_UnsupportedFeatureException"><rect codeLine="21" fill="#F1F1F1" height="32" id="UnsupportedFeatureException" rx="2.5" ry="2.5" style="stroke:#181818;stroke-width:0.5;" width="244" x="690.5" y="1874"/><ellipse cx="705.5" cy="1890" fill="#ADD1B2" rx="11" ry="11" style="stroke:#181818;stroke-width:1.0;"/><path d="M708.4688,1895.6406 Q707.8906,1895.9375 707.25,1896.0781 Q706.6094,1896.2344 705.9063,1896.2344 Q703.4063,1896.2344 702.0781,1894.5938 Q700.7656,1892.9375 700.7656,1889.8125 Q700.7656,1886.6875 702.0781,1885.0313 Q703.4063,1883.375 705.9063,1883.375 Q706.6094,1883.375 707.25,1883.5313 Q707.9063,1883.6875 708.4688,1883.9844 L708.4688,1886.7031 Q707.8438,1886.125 707.25,1885.8594 Q706.6563,1885.5781 706.0313,1885.5781 Q704.6875,1885.5781 704,1886.6563 Q703.3125,1887.7188 703.3125,1889.8125 Q703.3125,1891.9063 704,1892.9844 Q704.6875,1894.0469 706.0313,1894.0469 Q706.6563,1894.0469 707.25,1893.7813 Q707.8438,1893.5 708.4688,1892.9219 L708.4688,1895.6406 Z " fill="#000000"/><text fill="#000000" font-family="sans-serif" font-size="14" lengthAdjust="spacing" textLength="212" x="719.5" y="1894.8467">UnsupportedFeatureException</text></g><!--class CreateDatabaseCommand--><g id="elem_CreateDatabaseCommand"><rect codeLine="24" fill="#F1F1F1" height="32" id="CreateDatabaseCommand" rx="2.5" ry="2.5" style="stroke:#181818;stroke-width:0.5;" width="215" x="388.5" y="152"/><ellipse cx="403.5" cy="168" fill="#ADD1B2" rx="11" ry="11" style="stroke:#181818;stroke-width:1.0;"/><path d="M406.4688,173.6406 Q405.8906,173.9375 405.25,174.0781 Q404.6094,174.2344 403.9063,174.2344 Q401.4063,174.2344 400.0781,172.5938 Q398.7656,170.9375 398.7656,167.8125 Q398.7656,164.6875 400.0781,163.0313 Q401.4063,161.375 403.9063,161.375 Q404.6094,161.375 405.25,161.5313 Q405.9063,161.6875 406.4688,161.9844 L406.4688,164.7031 Q405.8438,164.125 405.25,163.8594 Q404.6563,163.5781 404.0313,163.5781 Q402.6875,163.5781 402,164.6563 Q401.3125,165.7188 401.3125,167.8125 Q401.3125,169.9063 402,170.9844 Q402.6875,172.0469 404.0313,172.0469 Q404.6563,172.0469 405.25,171.7813 Q405.8438,171.5 406.4688,170.9219 L406.4688,173.6406 Z " fill="#000000"/><text fill="#000000" font-family="sans-serif" font-size="14" lengthAdjust="spacing" textLength="183" x="417.5" y="172.8467">CreateDatabaseCommand</text></g><!--class ImportEstateCommand--><g id="elem_ImportEstateCommand"><rect codeLine="27" fill="#F1F1F1" height="32" id="ImportEstateCommand" rx="2.5" ry="2.5" style="stroke:#181818;stroke-width:0.5;" width="191" x="400.5" y="219"/><ellipse cx="415.5" cy="235" fill="#ADD1B2" rx="11" ry="11" style="stroke:#181818;stroke-width:1.0;"/><path d="M418.4688,240.6406 Q417.8906,240.9375 417.25,241.0781 Q416.6094,241.2344 415.9063,241.2344 Q413.4063,241.2344 412.0781,239.5938 Q410.7656,237.9375 410.7656,234.8125 Q410.7656,231.6875 412.0781,230.0313 Q413.4063,228.375 415.9063,228.375 Q416.6094,228.375 417.25,228.5313 Q417.9063,228.6875 418.4688,228.9844 L418.4688,231.7031 Q417.8438,231.125 417.25,230.8594 Q416.6563,230.5781 416.0313,230.5781 Q414.6875,230.5781 414,231.6563 Q413.3125,232.7188 413.3125,234.8125 Q413.3125,236.9063 414,237.9844 Q414.6875,239.0469 416.0313,239.0469 Q416.6563,239.0469 417.25,238.7813 Q417.8438,238.5 418.4688,237.9219 L418.4688,240.6406 Z " fill="#000000"/><text fill="#000000" font-family="sans-serif" font-size="14" lengthAdjust="spacing" textLength="159" x="429.5" y="239.8467">ImportEstateCommand</text></g><!--class AbstractDatabase--><g id="elem_AbstractDatabase"><rect codeLine="30" fill="#F1F1F1" height="32" id="AbstractDatabase" rx="2.5" ry="2.5" style="stroke:#181818;stroke-width:0.5;" width="155" x="735" y="2533"/><ellipse cx="750" cy="2549" fill="#A9DCDF" rx="11" ry="11" style="stroke:#181818;stroke-width:1.0;"/><path d="M750.1094,2544.3438 L748.9531,2549.4219 L751.2813,2549.4219 L750.1094,2544.3438 Z M748.625,2542.1094 L751.6094,2542.1094 L754.9688,2554.5 L752.5156,2554.5 L751.75,2551.4375 L748.4688,2551.4375 L747.7188,2554.5 L745.2813,2554.5 L748.625,2542.1094 Z " fill="#000000"/><text fill="#000000" font-family="sans-serif" font-size="14" font-style="italic" lengthAdjust="spacing" textLength="123" x="764" y="2553.8467">AbstractDatabase</text></g><!--class DatabaseBuilder--><g id="elem_DatabaseBuilder"><rect codeLine="33" fill="#F1F1F1" height="32" id="DatabaseBuilder" rx="2.5" ry="2.5" style="stroke:#181818;stroke-width:0.5;" width="146" x="739.5" y="2332"/><ellipse cx="754.5" cy="2348" fill="#ADD1B2" rx="11" ry="11" style="stroke:#181818;stroke-width:1.0;"/><path d="M757.4688,2353.6406 Q756.8906,2353.9375 756.25,2354.0781 Q755.6094,2354.2344 754.9063,2354.2344 Q752.4063,2354.2344 751.0781,2352.5938 Q749.7656,2350.9375 749.7656,2347.8125 Q749.7656,2344.6875 751.0781,2343.0313 Q752.4063,2341.375 754.9063,2341.375 Q755.6094,2341.375 756.25,2341.5313 Q756.9063,2341.6875 757.4688,2341.9844 L757.4688,2344.7031 Q756.8438,2344.125 756.25,2343.8594 Q755.6563,2343.5781 755.0313,2343.5781 Q753.6875,2343.5781 753,2344.6563 Q752.3125,2345.7188 752.3125,2347.8125 Q752.3125,2349.9063 753,2350.9844 Q753.6875,2352.0469 755.0313,2352.0469 Q755.6563,2352.0469 756.25,2351.7813 Q756.8438,2351.5 757.4688,2350.9219 L757.4688,2353.6406 Z " fill="#000000"/><text fill="#000000" font-family="sans-serif" font-size="14" lengthAdjust="spacing" textLength="114" x="768.5" y="2352.8467">DatabaseBuilder</text></g><!--class DatabaseClassResolver--><g id="elem_DatabaseClassResolver"><rect codeLine="36" fill="#F1F1F1" height="32" id="DatabaseClassResolver" rx="2.5" ry="2.5" style="stroke:#181818;stroke-width:0.5;" width="195" x="715" y="2265"/><ellipse cx="730" cy="2281" fill="#ADD1B2" rx="11" ry="11" style="stroke:#181818;stroke-width:1.0;"/><path d="M732.9688,2286.6406 Q732.3906,2286.9375 731.75,2287.0781 Q731.1094,2287.2344 730.4063,2287.2344 Q727.9063,2287.2344 726.5781,2285.5938 Q725.2656,2283.9375 725.2656,2280.8125 Q725.2656,2277.6875 726.5781,2276.0313 Q727.9063,2274.375 730.4063,2274.375 Q731.1094,2274.375 731.75,2274.5313 Q732.4063,2274.6875 732.9688,2274.9844 L732.9688,2277.7031 Q732.3438,2277.125 731.75,2276.8594 Q731.1563,2276.5781 730.5313,2276.5781 Q729.1875,2276.5781 728.5,2277.6563 Q727.8125,2278.7188 727.8125,2280.8125 Q727.8125,2282.9063 728.5,2283.9844 Q729.1875,2285.0469 730.5313,2285.0469 Q731.1563,2285.0469 731.75,2284.7813 Q732.3438,2284.5 732.9688,2283.9219 L732.9688,2286.6406 Z " fill="#000000"/><text fill="#000000" font-family="sans-serif" font-size="14" lengthAdjust="spacing" textLength="163" x="744" y="2285.8467">DatabaseClassResolver</text></g><!--class DatabaseManager--><g id="elem_DatabaseManager"><rect codeLine="39" fill="#F1F1F1" height="32" id="DatabaseManager" rx="2.5" ry="2.5" style="stroke:#181818;stroke-width:0.5;" width="158" x="1023" y="2332"/><ellipse cx="1038" cy="2348" fill="#ADD1B2" rx="11" ry="11" style="stroke:#181818;stroke-width:1.0;"/><path d="M1040.9688,2353.6406 Q1040.3906,2353.9375 1039.75,2354.0781 Q1039.1094,2354.2344 1038.4063,2354.2344 Q1035.9063,2354.2344 1034.5781,2352.5938 Q1033.2656,2350.9375 1033.2656,2347.8125 Q1033.2656,2344.6875 1034.5781,2343.0313 Q1035.9063,2341.375 1038.4063,2341.375 Q1039.1094,2341.375 1039.75,2341.5313 Q1040.4063,2341.6875 1040.9688,2341.9844 L1040.9688,2344.7031 Q1040.3438,2344.125 1039.75,2343.8594 Q1039.1563,2343.5781 1038.5313,2343.5781 Q1037.1875,2343.5781 1036.5,2344.6563 Q1035.8125,2345.7188 1035.8125,2347.8125 Q1035.8125,2349.9063 1036.5,2350.9844 Q1037.1875,2352.0469 1038.5313,2352.0469 Q1039.1563,2352.0469 1039.75,2351.7813 Q1040.3438,2351.5 1040.9688,2350.9219 L1040.9688,2353.6406 Z " fill="#000000"/><text fill="#000000" font-family="sans-serif" font-size="14" lengthAdjust="spacing" textLength="126" x="1052" y="2352.8467">DatabaseManager</text></g><!--class PostgreSqlDatabase--><g id="elem_PostgreSqlDatabase"><rect codeLine="42" fill="#F1F1F1" height="32" id="PostgreSqlDatabase" rx="2.5" ry="2.5" style="stroke:#181818;stroke-width:0.5;" width="173" x="1015.5" y="2466"/><ellipse cx="1030.5" cy="2482" fill="#ADD1B2" rx="11" ry="11" style="stroke:#181818;stroke-width:1.0;"/><path d="M1033.4688,2487.6406 Q1032.8906,2487.9375 1032.25,2488.0781 Q1031.6094,2488.2344 1030.9063,2488.2344 Q1028.4063,2488.2344 1027.0781,2486.5938 Q1025.7656,2484.9375 1025.7656,2481.8125 Q1025.7656,2478.6875 1027.0781,2477.0313 Q1028.4063,2475.375 1030.9063,2475.375 Q1031.6094,2475.375 1032.25,2475.5313 Q1032.9063,2475.6875 1033.4688,2475.9844 L1033.4688,2478.7031 Q1032.8438,2478.125 1032.25,2477.8594 Q1031.6563,2477.5781 1031.0313,2477.5781 Q1029.6875,2477.5781 1029,2478.6563 Q1028.3125,2479.7188 1028.3125,2481.8125 Q1028.3125,2483.9063 1029,2484.9844 Q1029.6875,2486.0469 1031.0313,2486.0469 Q1031.6563,2486.0469 1032.25,2485.7813 Q1032.8438,2485.5 1033.4688,2484.9219 L1033.4688,2487.6406 Z " fill="#000000"/><text fill="#000000" font-family="sans-serif" font-size="14" lengthAdjust="spacing" textLength="141" x="1044.5" y="2486.8467">PostgreSqlDatabase</text></g><!--class ILessQL--><g id="elem_ILessQL"><rect codeLine="48" fill="#F1F1F1" height="32" id="ILessQL" rx="2.5" ry="2.5" style="stroke:#181818;stroke-width:0.5;" width="85" x="770" y="2399"/><ellipse cx="785" cy="2415" fill="#B4A7E5" rx="11" ry="11" style="stroke:#181818;stroke-width:1.0;"/><path d="M780.9219,2410.7656 L780.9219,2408.6094 L788.3125,2408.6094 L788.3125,2410.7656 L785.8438,2410.7656 L785.8438,2418.8438 L788.3125,2418.8438 L788.3125,2421 L780.9219,2421 L780.9219,2418.8438 L783.3906,2418.8438 L783.3906,2410.7656 L780.9219,2410.7656 Z " fill="#000000"/><text fill="#000000" font-family="sans-serif" font-size="14" font-style="italic" lengthAdjust="spacing" textLength="53" x="799" y="2419.8467">ILessQL</text></g><!--class IPDOAble--><g id="elem_IPDOAble"><rect codeLine="51" fill="#F1F1F1" height="32" id="IPDOAble" rx="2.5" ry="2.5" style="stroke:#181818;stroke-width:0.5;" width="96" x="764.5" y="2466"/><ellipse cx="779.5" cy="2482" fill="#B4A7E5" rx="11" ry="11" style="stroke:#181818;stroke-width:1.0;"/><path d="M775.4219,2477.7656 L775.4219,2475.6094 L782.8125,2475.6094 L782.8125,2477.7656 L780.3438,2477.7656 L780.3438,2485.8438 L782.8125,2485.8438 L782.8125,2488 L775.4219,2488 L775.4219,2485.8438 L777.8906,2485.8438 L777.8906,2477.7656 L775.4219,2477.7656 Z " fill="#000000"/><text fill="#000000" font-family="sans-serif" font-size="14" font-style="italic" lengthAdjust="spacing" textLength="64" x="793.5" y="2486.8467">IPDOAble</text></g><!--class UnsupportedConnectionException--><g id="elem_UnsupportedConnectionException"><rect codeLine="45" fill="#F1F1F1" height="32" id="UnsupportedConnectionException" rx="2.5" ry="2.5" style="stroke:#181818;stroke-width:0.5;" width="271" x="677" y="2600"/><ellipse cx="692" cy="2616" fill="#ADD1B2" rx="11" ry="11" style="stroke:#181818;stroke-width:1.0;"/><path d="M694.9688,2621.6406 Q694.3906,2621.9375 693.75,2622.0781 Q693.1094,2622.2344 692.4063,2622.2344 Q689.9063,2622.2344 688.5781,2620.5938 Q687.2656,2618.9375 687.2656,2615.8125 Q687.2656,2612.6875 688.5781,2611.0313 Q689.9063,2609.375 692.4063,2609.375 Q693.1094,2609.375 693.75,2609.5313 Q694.4063,2609.6875 694.9688,2609.9844 L694.9688,2612.7031 Q694.3438,2612.125 693.75,2611.8594 Q693.1563,2611.5781 692.5313,2611.5781 Q691.1875,2611.5781 690.5,2612.6563 Q689.8125,2613.7188 689.8125,2615.8125 Q689.8125,2617.9063 690.5,2618.9844 Q691.1875,2620.0469 692.5313,2620.0469 Q693.1563,2620.0469 693.75,2619.7813 Q694.3438,2619.5 694.9688,2618.9219 L694.9688,2621.6406 Z " fill="#000000"/><text fill="#000000" font-family="sans-serif" font-size="14" lengthAdjust="spacing" textLength="239" x="706" y="2620.8467">UnsupportedConnectionException</text></g><!--class Arr--><g id="elem_Arr"><rect codeLine="54" fill="#F1F1F1" height="32" id="Arr" rx="2.5" ry="2.5" style="stroke:#181818;stroke-width:0.5;" width="51" x="470.5" y="326"/><ellipse cx="485.5" cy="342" fill="#ADD1B2" rx="11" ry="11" style="stroke:#181818;stroke-width:1.0;"/><path d="M488.4688,347.6406 Q487.8906,347.9375 487.25,348.0781 Q486.6094,348.2344 485.9063,348.2344 Q483.4063,348.2344 482.0781,346.5938 Q480.7656,344.9375 480.7656,341.8125 Q480.7656,338.6875 482.0781,337.0313 Q483.4063,335.375 485.9063,335.375 Q486.6094,335.375 487.25,335.5313 Q487.9063,335.6875 488.4688,335.9844 L488.4688,338.7031 Q487.8438,338.125 487.25,337.8594 Q486.6563,337.5781 486.0313,337.5781 Q484.6875,337.5781 484,338.6563 Q483.3125,339.7188 483.3125,341.8125 Q483.3125,343.9063 484,344.9844 Q484.6875,346.0469 486.0313,346.0469 Q486.6563,346.0469 487.25,345.7813 Q487.8438,345.5 488.4688,344.9219 L488.4688,347.6406 Z " fill="#000000"/><text fill="#000000" font-family="sans-serif" font-size="14" lengthAdjust="spacing" textLength="19" x="499.5" y="346.8467">Arr</text></g><!--class Phone--><g id="elem_Phone"><rect codeLine="57" fill="#F1F1F1" height="32" id="Phone" rx="2.5" ry="2.5" style="stroke:#181818;stroke-width:0.5;" width="77" x="457.5" y="393"/><ellipse cx="472.5" cy="409" fill="#ADD1B2" rx="11" ry="11" style="stroke:#181818;stroke-width:1.0;"/><path d="M475.4688,414.6406 Q474.8906,414.9375 474.25,415.0781 Q473.6094,415.2344 472.9063,415.2344 Q470.4063,415.2344 469.0781,413.5938 Q467.7656,411.9375 467.7656,408.8125 Q467.7656,405.6875 469.0781,404.0313 Q470.4063,402.375 472.9063,402.375 Q473.6094,402.375 474.25,402.5313 Q474.9063,402.6875 475.4688,402.9844 L475.4688,405.7031 Q474.8438,405.125 474.25,404.8594 Q473.6563,404.5781 473.0313,404.5781 Q471.6875,404.5781 471,405.6563 Q470.3125,406.7188 470.3125,408.8125 Q470.3125,410.9063 471,411.9844 Q471.6875,413.0469 473.0313,413.0469 Q473.6563,413.0469 474.25,412.7813 Q474.8438,412.5 475.4688,411.9219 L475.4688,414.6406 Z " fill="#000000"/><text fill="#000000" font-family="sans-serif" font-size="14" lengthAdjust="spacing" textLength="45" x="486.5" y="413.8467">Phone</text></g><!--class AgenciesController--><g id="elem_AgenciesController"><rect codeLine="61" fill="#F1F1F1" height="32" id="AgenciesController" rx="2.5" ry="2.5" style="stroke:#181818;stroke-width:0.5;" width="163" x="731" y="768"/><ellipse cx="746" cy="784" fill="#ADD1B2" rx="11" ry="11" style="stroke:#181818;stroke-width:1.0;"/><path d="M748.9688,789.6406 Q748.3906,789.9375 747.75,790.0781 Q747.1094,790.2344 746.4063,790.2344 Q743.9063,790.2344 742.5781,788.5938 Q741.2656,786.9375 741.2656,783.8125 Q741.2656,780.6875 742.5781,779.0313 Q743.9063,777.375 746.4063,777.375 Q747.1094,777.375 747.75,777.5313 Q748.4063,777.6875 748.9688,777.9844 L748.9688,780.7031 Q748.3438,780.125 747.75,779.8594 Q747.1563,779.5781 746.5313,779.5781 Q745.1875,779.5781 744.5,780.6563 Q743.8125,781.7188 743.8125,783.8125 Q743.8125,785.9063 744.5,786.9844 Q745.1875,788.0469 746.5313,788.0469 Q747.1563,788.0469 747.75,787.7813 Q748.3438,787.5 748.9688,786.9219 L748.9688,789.6406 Z " fill="#000000"/><text fill="#000000" font-family="sans-serif" font-size="14" lengthAdjust="spacing" textLength="131" x="760" y="788.8467">AgenciesController</text></g><!--class ApiController--><g id="elem_ApiController"><rect codeLine="64" fill="#F1F1F1" height="32" id="ApiController" rx="2.5" ry="2.5" style="stroke:#181818;stroke-width:0.5;" width="120" x="436" y="736"/><ellipse cx="451" cy="752" fill="#A9DCDF" rx="11" ry="11" style="stroke:#181818;stroke-width:1.0;"/><path d="M451.1094,747.3438 L449.9531,752.4219 L452.2813,752.4219 L451.1094,747.3438 Z M449.625,745.1094 L452.6094,745.1094 L455.9688,757.5 L453.5156,757.5 L452.75,754.4375 L449.4688,754.4375 L448.7188,757.5 L446.2813,757.5 L449.625,745.1094 Z " fill="#000000"/><text fill="#000000" font-family="sans-serif" font-size="14" font-style="italic" lengthAdjust="spacing" textLength="88" x="465" y="756.8467">ApiController</text></g><!--class ContactsController--><g id="elem_ContactsController"><rect codeLine="68" fill="#F1F1F1" height="32" id="ContactsController" rx="2.5" ry="2.5" style="stroke:#181818;stroke-width:0.5;" width="161" x="732" y="701"/><ellipse cx="747" cy="717" fill="#ADD1B2" rx="11" ry="11" style="stroke:#181818;stroke-width:1.0;"/><path d="M749.9688,722.6406 Q749.3906,722.9375 748.75,723.0781 Q748.1094,723.2344 747.4063,723.2344 Q744.9063,723.2344 743.5781,721.5938 Q742.2656,719.9375 742.2656,716.8125 Q742.2656,713.6875 743.5781,712.0313 Q744.9063,710.375 747.4063,710.375 Q748.1094,710.375 748.75,710.5313 Q749.4063,710.6875 749.9688,710.9844 L749.9688,713.7031 Q749.3438,713.125 748.75,712.8594 Q748.1563,712.5781 747.5313,712.5781 Q746.1875,712.5781 745.5,713.6563 Q744.8125,714.7188 744.8125,716.8125 Q744.8125,718.9063 745.5,719.9844 Q746.1875,721.0469 747.5313,721.0469 Q748.1563,721.0469 748.75,720.7813 Q749.3438,720.5 749.9688,719.9219 L749.9688,722.6406 Z " fill="#000000"/><text fill="#000000" font-family="sans-serif" font-size="14" lengthAdjust="spacing" textLength="129" x="761" y="721.8467">ContactsController</text></g><!--class EstatesController--><g id="elem_EstatesController"><rect codeLine="72" fill="#F1F1F1" height="32" id="EstatesController" rx="2.5" ry="2.5" style="stroke:#181818;stroke-width:0.5;" width="151" x="737" y="634"/><ellipse cx="752" cy="650" fill="#ADD1B2" rx="11" ry="11" style="stroke:#181818;stroke-width:1.0;"/><path d="M754.9688,655.6406 Q754.3906,655.9375 753.75,656.0781 Q753.1094,656.2344 752.4063,656.2344 Q749.9063,656.2344 748.5781,654.5938 Q747.2656,652.9375 747.2656,649.8125 Q747.2656,646.6875 748.5781,645.0313 Q749.9063,643.375 752.4063,643.375 Q753.1094,643.375 753.75,643.5313 Q754.4063,643.6875 754.9688,643.9844 L754.9688,646.7031 Q754.3438,646.125 753.75,645.8594 Q753.1563,645.5781 752.5313,645.5781 Q751.1875,645.5781 750.5,646.6563 Q749.8125,647.7188 749.8125,649.8125 Q749.8125,651.9063 750.5,652.9844 Q751.1875,654.0469 752.5313,654.0469 Q753.1563,654.0469 753.75,653.7813 Q754.3438,653.5 754.9688,652.9219 L754.9688,655.6406 Z " fill="#000000"/><text fill="#000000" font-family="sans-serif" font-size="14" lengthAdjust="spacing" textLength="119" x="766" y="654.8467">EstatesController</text></g><!--class HomeController--><g id="elem_HomeController"><rect codeLine="75" fill="#F1F1F1" height="32" id="HomeController" rx="2.5" ry="2.5" style="stroke:#181818;stroke-width:0.5;" width="140" x="426" y="803"/><ellipse cx="441" cy="819" fill="#ADD1B2" rx="11" ry="11" style="stroke:#181818;stroke-width:1.0;"/><path d="M443.9688,824.6406 Q443.3906,824.9375 442.75,825.0781 Q442.1094,825.2344 441.4063,825.2344 Q438.9063,825.2344 437.5781,823.5938 Q436.2656,821.9375 436.2656,818.8125 Q436.2656,815.6875 437.5781,814.0313 Q438.9063,812.375 441.4063,812.375 Q442.1094,812.375 442.75,812.5313 Q443.4063,812.6875 443.9688,812.9844 L443.9688,815.7031 Q443.3438,815.125 442.75,814.8594 Q442.1563,814.5781 441.5313,814.5781 Q440.1875,814.5781 439.5,815.6563 Q438.8125,816.7188 438.8125,818.8125 Q438.8125,820.9063 439.5,821.9844 Q440.1875,823.0469 441.5313,823.0469 Q442.1563,823.0469 442.75,822.7813 Q443.3438,822.5 443.9688,821.9219 L443.9688,824.6406 Z " fill="#000000"/><text fill="#000000" font-family="sans-serif" font-size="14" lengthAdjust="spacing" textLength="108" x="455" y="823.8467">HomeController</text></g><!--class ManagersController--><g id="elem_ManagersController"><rect codeLine="79" fill="#F1F1F1" height="32" id="ManagersController" rx="2.5" ry="2.5" style="stroke:#181818;stroke-width:0.5;" width="167" x="729" y="567"/><ellipse cx="744" cy="583" fill="#ADD1B2" rx="11" ry="11" style="stroke:#181818;stroke-width:1.0;"/><path d="M746.9688,588.6406 Q746.3906,588.9375 745.75,589.0781 Q745.1094,589.2344 744.4063,589.2344 Q741.9063,589.2344 740.5781,587.5938 Q739.2656,585.9375 739.2656,582.8125 Q739.2656,579.6875 740.5781,578.0313 Q741.9063,576.375 744.4063,576.375 Q745.1094,576.375 745.75,576.5313 Q746.4063,576.6875 746.9688,576.9844 L746.9688,579.7031 Q746.3438,579.125 745.75,578.8594 Q745.1563,578.5781 744.5313,578.5781 Q743.1875,578.5781 742.5,579.6563 Q741.8125,580.7188 741.8125,582.8125 Q741.8125,584.9063 742.5,585.9844 Q743.1875,587.0469 744.5313,587.0469 Q745.1563,587.0469 745.75,586.7813 Q746.3438,586.5 746.9688,585.9219 L746.9688,588.6406 Z " fill="#000000"/><text fill="#000000" font-family="sans-serif" font-size="14" lengthAdjust="spacing" textLength="135" x="758" y="587.8467">ManagersController</text></g><!--class Resource--><g id="elem_Resource"><rect codeLine="85" fill="#F1F1F1" height="40.2656" id="Resource" rx="2.5" ry="2.5" style="stroke:#181818;stroke-width:0.5;" width="99" x="446.5" y="586"/><ellipse cx="461.5" cy="606.1328" fill="#FF7700" rx="11" ry="11" style="stroke:#181818;stroke-width:1.0;"/><path d="M462.3438,612.8828 L459.8906,612.8828 L459.8906,602.6328 L456.75,602.6328 L456.75,600.4922 L465.4844,600.4922 L465.4844,602.6328 L462.3438,602.6328 L462.3438,612.8828 Z " fill="#000000"/><text fill="#000000" font-family="sans-serif" font-size="12" font-style="italic" lengthAdjust="spacing" textLength="42" x="488" y="602.1387">&#171;Trait&#187;</text><text fill="#000000" font-family="sans-serif" font-size="14" lengthAdjust="spacing" textLength="67" x="475.5" y="617.9639">Resource</text></g><!--class Common--><g id="elem_Common"><rect codeLine="82" fill="#F1F1F1" height="40.2656" id="Common" rx="2.5" ry="2.5" style="stroke:#181818;stroke-width:0.5;" width="95" x="448.5" y="661"/><ellipse cx="463.5" cy="681.1328" fill="#FF7700" rx="11" ry="11" style="stroke:#181818;stroke-width:1.0;"/><path d="M464.3438,687.8828 L461.8906,687.8828 L461.8906,677.6328 L458.75,677.6328 L458.75,675.4922 L467.4844,675.4922 L467.4844,677.6328 L464.3438,677.6328 L464.3438,687.8828 Z " fill="#000000"/><text fill="#000000" font-family="sans-serif" font-size="12" font-style="italic" lengthAdjust="spacing" textLength="42" x="488" y="677.1387">&#171;Trait&#187;</text><text fill="#000000" font-family="sans-serif" font-size="14" lengthAdjust="spacing" textLength="63" x="477.5" y="692.9639">Common</text></g><!--class AgencyIndexRequest--><g id="elem_AgencyIndexRequest"><rect codeLine="88" fill="#F1F1F1" height="32" id="AgencyIndexRequest" rx="2.5" ry="2.5" style="stroke:#181818;stroke-width:0.5;" width="179" x="1012.5" y="1111"/><ellipse cx="1027.5" cy="1127" fill="#ADD1B2" rx="11" ry="11" style="stroke:#181818;stroke-width:1.0;"/><path d="M1030.4688,1132.6406 Q1029.8906,1132.9375 1029.25,1133.0781 Q1028.6094,1133.2344 1027.9063,1133.2344 Q1025.4063,1133.2344 1024.0781,1131.5938 Q1022.7656,1129.9375 1022.7656,1126.8125 Q1022.7656,1123.6875 1024.0781,1122.0313 Q1025.4063,1120.375 1027.9063,1120.375 Q1028.6094,1120.375 1029.25,1120.5313 Q1029.9063,1120.6875 1030.4688,1120.9844 L1030.4688,1123.7031 Q1029.8438,1123.125 1029.25,1122.8594 Q1028.6563,1122.5781 1028.0313,1122.5781 Q1026.6875,1122.5781 1026,1123.6563 Q1025.3125,1124.7188 1025.3125,1126.8125 Q1025.3125,1128.9063 1026,1129.9844 Q1026.6875,1131.0469 1028.0313,1131.0469 Q1028.6563,1131.0469 1029.25,1130.7813 Q1029.8438,1130.5 1030.4688,1129.9219 L1030.4688,1132.6406 Z " fill="#000000"/><text fill="#000000" font-family="sans-serif" font-size="14" lengthAdjust="spacing" textLength="147" x="1041.5" y="1131.8467">AgencyIndexRequest</text></g><!--class RestIndexRequest--><g id="elem_RestIndexRequest"><rect codeLine="103" fill="#F1F1F1" height="32" id="RestIndexRequest" rx="2.5" ry="2.5" style="stroke:#181818;stroke-width:0.5;" width="160" x="732.5" y="1064"/><ellipse cx="747.5" cy="1080" fill="#ADD1B2" rx="11" ry="11" style="stroke:#181818;stroke-width:1.0;"/><path d="M750.4688,1085.6406 Q749.8906,1085.9375 749.25,1086.0781 Q748.6094,1086.2344 747.9063,1086.2344 Q745.4063,1086.2344 744.0781,1084.5938 Q742.7656,1082.9375 742.7656,1079.8125 Q742.7656,1076.6875 744.0781,1075.0313 Q745.4063,1073.375 747.9063,1073.375 Q748.6094,1073.375 749.25,1073.5313 Q749.9063,1073.6875 750.4688,1073.9844 L750.4688,1076.7031 Q749.8438,1076.125 749.25,1075.8594 Q748.6563,1075.5781 748.0313,1075.5781 Q746.6875,1075.5781 746,1076.6563 Q745.3125,1077.7188 745.3125,1079.8125 Q745.3125,1081.9063 746,1082.9844 Q746.6875,1084.0469 748.0313,1084.0469 Q748.6563,1084.0469 749.25,1083.7813 Q749.8438,1083.5 750.4688,1082.9219 L750.4688,1085.6406 Z " fill="#000000"/><text fill="#000000" font-family="sans-serif" font-size="14" lengthAdjust="spacing" textLength="128" x="761.5" y="1084.8467">RestIndexRequest</text></g><!--class BaseRequest--><g id="elem_BaseRequest"><rect codeLine="91" fill="#F1F1F1" height="32" id="BaseRequest" rx="2.5" ry="2.5" style="stroke:#181818;stroke-width:0.5;" width="126" x="433" y="1084"/><ellipse cx="448" cy="1100" fill="#A9DCDF" rx="11" ry="11" style="stroke:#181818;stroke-width:1.0;"/><path d="M448.1094,1095.3438 L446.9531,1100.4219 L449.2813,1100.4219 L448.1094,1095.3438 Z M446.625,1093.1094 L449.6094,1093.1094 L452.9688,1105.5 L450.5156,1105.5 L449.75,1102.4375 L446.4688,1102.4375 L445.7188,1105.5 L443.2813,1105.5 L446.625,1093.1094 Z " fill="#000000"/><text fill="#000000" font-family="sans-serif" font-size="14" font-style="italic" lengthAdjust="spacing" textLength="94" x="462" y="1104.8467">BaseRequest</text></g><!--class ContactIndexRequest--><g id="elem_ContactIndexRequest"><rect codeLine="94" fill="#F1F1F1" height="32" id="ContactIndexRequest" rx="2.5" ry="2.5" style="stroke:#181818;stroke-width:0.5;" width="182" x="1011" y="1044"/><ellipse cx="1026" cy="1060" fill="#ADD1B2" rx="11" ry="11" style="stroke:#181818;stroke-width:1.0;"/><path d="M1028.9688,1065.6406 Q1028.3906,1065.9375 1027.75,1066.0781 Q1027.1094,1066.2344 1026.4063,1066.2344 Q1023.9063,1066.2344 1022.5781,1064.5938 Q1021.2656,1062.9375 1021.2656,1059.8125 Q1021.2656,1056.6875 1022.5781,1055.0313 Q1023.9063,1053.375 1026.4063,1053.375 Q1027.1094,1053.375 1027.75,1053.5313 Q1028.4063,1053.6875 1028.9688,1053.9844 L1028.9688,1056.7031 Q1028.3438,1056.125 1027.75,1055.8594 Q1027.1563,1055.5781 1026.5313,1055.5781 Q1025.1875,1055.5781 1024.5,1056.6563 Q1023.8125,1057.7188 1023.8125,1059.8125 Q1023.8125,1061.9063 1024.5,1062.9844 Q1025.1875,1064.0469 1026.5313,1064.0469 Q1027.1563,1064.0469 1027.75,1063.7813 Q1028.3438,1063.5 1028.9688,1062.9219 L1028.9688,1065.6406 Z " fill="#000000"/><text fill="#000000" font-family="sans-serif" font-size="14" lengthAdjust="spacing" textLength="150" x="1040" y="1064.8467">ContactIndexRequest</text></g><!--class EstateIndexRequest--><g id="elem_EstateIndexRequest"><rect codeLine="97" fill="#F1F1F1" height="32" id="EstateIndexRequest" rx="2.5" ry="2.5" style="stroke:#181818;stroke-width:0.5;" width="172" x="1016" y="977"/><ellipse cx="1031" cy="993" fill="#ADD1B2" rx="11" ry="11" style="stroke:#181818;stroke-width:1.0;"/><path d="M1033.9688,998.6406 Q1033.3906,998.9375 1032.75,999.0781 Q1032.1094,999.2344 1031.4063,999.2344 Q1028.9063,999.2344 1027.5781,997.5938 Q1026.2656,995.9375 1026.2656,992.8125 Q1026.2656,989.6875 1027.5781,988.0313 Q1028.9063,986.375 1031.4063,986.375 Q1032.1094,986.375 1032.75,986.5313 Q1033.4063,986.6875 1033.9688,986.9844 L1033.9688,989.7031 Q1033.3438,989.125 1032.75,988.8594 Q1032.1563,988.5781 1031.5313,988.5781 Q1030.1875,988.5781 1029.5,989.6563 Q1028.8125,990.7188 1028.8125,992.8125 Q1028.8125,994.9063 1029.5,995.9844 Q1030.1875,997.0469 1031.5313,997.0469 Q1032.1563,997.0469 1032.75,996.7813 Q1033.3438,996.5 1033.9688,995.9219 L1033.9688,998.6406 Z " fill="#000000"/><text fill="#000000" font-family="sans-serif" font-size="14" lengthAdjust="spacing" textLength="140" x="1045" y="997.8467">EstateIndexRequest</text></g><!--class ManagerIndexRequest--><g id="elem_ManagerIndexRequest"><rect codeLine="100" fill="#F1F1F1" height="32" id="ManagerIndexRequest" rx="2.5" ry="2.5" style="stroke:#181818;stroke-width:0.5;" width="188" x="1008" y="910"/><ellipse cx="1023" cy="926" fill="#ADD1B2" rx="11" ry="11" style="stroke:#181818;stroke-width:1.0;"/><path d="M1025.9688,931.6406 Q1025.3906,931.9375 1024.75,932.0781 Q1024.1094,932.2344 1023.4063,932.2344 Q1020.9063,932.2344 1019.5781,930.5938 Q1018.2656,928.9375 1018.2656,925.8125 Q1018.2656,922.6875 1019.5781,921.0313 Q1020.9063,919.375 1023.4063,919.375 Q1024.1094,919.375 1024.75,919.5313 Q1025.4063,919.6875 1025.9688,919.9844 L1025.9688,922.7031 Q1025.3438,922.125 1024.75,921.8594 Q1024.1563,921.5781 1023.5313,921.5781 Q1022.1875,921.5781 1021.5,922.6563 Q1020.8125,923.7188 1020.8125,925.8125 Q1020.8125,927.9063 1021.5,928.9844 Q1022.1875,930.0469 1023.5313,930.0469 Q1024.1563,930.0469 1024.75,929.7813 Q1025.3438,929.5 1025.9688,928.9219 L1025.9688,931.6406 Z " fill="#000000"/><text fill="#000000" font-family="sans-serif" font-size="14" lengthAdjust="spacing" textLength="156" x="1037" y="930.8467">ManagerIndexRequest</text></g><!--class RestShowRequest--><g id="elem_RestShowRequest"><rect codeLine="106" fill="#F1F1F1" height="32" id="RestShowRequest" rx="2.5" ry="2.5" style="stroke:#181818;stroke-width:0.5;" width="161" x="732" y="997"/><ellipse cx="747" cy="1013" fill="#ADD1B2" rx="11" ry="11" style="stroke:#181818;stroke-width:1.0;"/><path d="M749.9688,1018.6406 Q749.3906,1018.9375 748.75,1019.0781 Q748.1094,1019.2344 747.4063,1019.2344 Q744.9063,1019.2344 743.5781,1017.5938 Q742.2656,1015.9375 742.2656,1012.8125 Q742.2656,1009.6875 743.5781,1008.0313 Q744.9063,1006.375 747.4063,1006.375 Q748.1094,1006.375 748.75,1006.5313 Q749.4063,1006.6875 749.9688,1006.9844 L749.9688,1009.7031 Q749.3438,1009.125 748.75,1008.8594 Q748.1563,1008.5781 747.5313,1008.5781 Q746.1875,1008.5781 745.5,1009.6563 Q744.8125,1010.7188 744.8125,1012.8125 Q744.8125,1014.9063 745.5,1015.9844 Q746.1875,1017.0469 747.5313,1017.0469 Q748.1563,1017.0469 748.75,1016.7813 Q749.3438,1016.5 749.9688,1015.9219 L749.9688,1018.6406 Z " fill="#000000"/><text fill="#000000" font-family="sans-serif" font-size="14" lengthAdjust="spacing" textLength="129" x="761" y="1017.8467">RestShowRequest</text></g><!--class ExistsInDatabase--><g id="elem_ExistsInDatabase"><rect codeLine="109" fill="#F1F1F1" height="32" id="ExistsInDatabase" rx="2.5" ry="2.5" style="stroke:#181818;stroke-width:0.5;" width="150" x="421" y="996"/><ellipse cx="436" cy="1012" fill="#ADD1B2" rx="11" ry="11" style="stroke:#181818;stroke-width:1.0;"/><path d="M438.9688,1017.6406 Q438.3906,1017.9375 437.75,1018.0781 Q437.1094,1018.2344 436.4063,1018.2344 Q433.9063,1018.2344 432.5781,1016.5938 Q431.2656,1014.9375 431.2656,1011.8125 Q431.2656,1008.6875 432.5781,1007.0313 Q433.9063,1005.375 436.4063,1005.375 Q437.1094,1005.375 437.75,1005.5313 Q438.4063,1005.6875 438.9688,1005.9844 L438.9688,1008.7031 Q438.3438,1008.125 437.75,1007.8594 Q437.1563,1007.5781 436.5313,1007.5781 Q435.1875,1007.5781 434.5,1008.6563 Q433.8125,1009.7188 433.8125,1011.8125 Q433.8125,1013.9063 434.5,1014.9844 Q435.1875,1016.0469 436.5313,1016.0469 Q437.1563,1016.0469 437.75,1015.7813 Q438.3438,1015.5 438.9688,1014.9219 L438.9688,1017.6406 Z " fill="#000000"/><text fill="#000000" font-family="sans-serif" font-size="14" lengthAdjust="spacing" textLength="118" x="450" y="1016.8467">ExistsInDatabase</text></g><!--class AbstractImporter--><g id="elem_AbstractImporter"><rect codeLine="113" fill="#F1F1F1" height="32" id="AbstractImporter" rx="2.5" ry="2.5" style="stroke:#181818;stroke-width:0.5;" width="147" x="739" y="1358"/><ellipse cx="754" cy="1374" fill="#A9DCDF" rx="11" ry="11" style="stroke:#181818;stroke-width:1.0;"/><path d="M754.1094,1369.3438 L752.9531,1374.4219 L755.2813,1374.4219 L754.1094,1369.3438 Z M752.625,1367.1094 L755.6094,1367.1094 L758.9688,1379.5 L756.5156,1379.5 L755.75,1376.4375 L752.4688,1376.4375 L751.7188,1379.5 L749.2813,1379.5 L752.625,1367.1094 Z " fill="#000000"/><text fill="#000000" font-family="sans-serif" font-size="14" font-style="italic" lengthAdjust="spacing" textLength="115" x="768" y="1378.8467">AbstractImporter</text></g><!--class EstateImporter--><g id="elem_EstateImporter"><rect codeLine="117" fill="#F1F1F1" height="32" id="EstateImporter" rx="2.5" ry="2.5" style="stroke:#181818;stroke-width:0.5;" width="134" x="1035" y="1327"/><ellipse cx="1050" cy="1343" fill="#ADD1B2" rx="11" ry="11" style="stroke:#181818;stroke-width:1.0;"/><path d="M1052.9688,1348.6406 Q1052.3906,1348.9375 1051.75,1349.0781 Q1051.1094,1349.2344 1050.4063,1349.2344 Q1047.9063,1349.2344 1046.5781,1347.5938 Q1045.2656,1345.9375 1045.2656,1342.8125 Q1045.2656,1339.6875 1046.5781,1338.0313 Q1047.9063,1336.375 1050.4063,1336.375 Q1051.1094,1336.375 1051.75,1336.5313 Q1052.4063,1336.6875 1052.9688,1336.9844 L1052.9688,1339.7031 Q1052.3438,1339.125 1051.75,1338.8594 Q1051.1563,1338.5781 1050.5313,1338.5781 Q1049.1875,1338.5781 1048.5,1339.6563 Q1047.8125,1340.7188 1047.8125,1342.8125 Q1047.8125,1344.9063 1048.5,1345.9844 Q1049.1875,1347.0469 1050.5313,1347.0469 Q1051.1563,1347.0469 1051.75,1346.7813 Q1052.3438,1346.5 1052.9688,1345.9219 L1052.9688,1348.6406 Z " fill="#000000"/><text fill="#000000" font-family="sans-serif" font-size="14" lengthAdjust="spacing" textLength="102" x="1064" y="1347.8467">EstateImporter</text></g><!--class ImporterBuilder--><g id="elem_ImporterBuilder"><rect codeLine="120" fill="#F1F1F1" height="32" id="ImporterBuilder" rx="2.5" ry="2.5" style="stroke:#181818;stroke-width:0.5;" width="138" x="427" y="1743"/><ellipse cx="442" cy="1759" fill="#ADD1B2" rx="11" ry="11" style="stroke:#181818;stroke-width:1.0;"/><path d="M444.9688,1764.6406 Q444.3906,1764.9375 443.75,1765.0781 Q443.1094,1765.2344 442.4063,1765.2344 Q439.9063,1765.2344 438.5781,1763.5938 Q437.2656,1761.9375 437.2656,1758.8125 Q437.2656,1755.6875 438.5781,1754.0313 Q439.9063,1752.375 442.4063,1752.375 Q443.1094,1752.375 443.75,1752.5313 Q444.4063,1752.6875 444.9688,1752.9844 L444.9688,1755.7031 Q444.3438,1755.125 443.75,1754.8594 Q443.1563,1754.5781 442.5313,1754.5781 Q441.1875,1754.5781 440.5,1755.6563 Q439.8125,1756.7188 439.8125,1758.8125 Q439.8125,1760.9063 440.5,1761.9844 Q441.1875,1763.0469 442.5313,1763.0469 Q443.1563,1763.0469 443.75,1762.7813 Q444.3438,1762.5 444.9688,1761.9219 L444.9688,1764.6406 Z " fill="#000000"/><text fill="#000000" font-family="sans-serif" font-size="14" lengthAdjust="spacing" textLength="106" x="456" y="1763.8467">ImporterBuilder</text></g><!--class ImporterFactory--><g id="elem_ImporterFactory"><rect codeLine="123" fill="#F1F1F1" height="32" id="ImporterFactory" rx="2.5" ry="2.5" style="stroke:#181818;stroke-width:0.5;" width="140" x="426" y="1810"/><ellipse cx="441" cy="1826" fill="#ADD1B2" rx="11" ry="11" style="stroke:#181818;stroke-width:1.0;"/><path d="M443.9688,1831.6406 Q443.3906,1831.9375 442.75,1832.0781 Q442.1094,1832.2344 441.4063,1832.2344 Q438.9063,1832.2344 437.5781,1830.5938 Q436.2656,1828.9375 436.2656,1825.8125 Q436.2656,1822.6875 437.5781,1821.0313 Q438.9063,1819.375 441.4063,1819.375 Q442.1094,1819.375 442.75,1819.5313 Q443.4063,1819.6875 443.9688,1819.9844 L443.9688,1822.7031 Q443.3438,1822.125 442.75,1821.8594 Q442.1563,1821.5781 441.5313,1821.5781 Q440.1875,1821.5781 439.5,1822.6563 Q438.8125,1823.7188 438.8125,1825.8125 Q438.8125,1827.9063 439.5,1828.9844 Q440.1875,1830.0469 441.5313,1830.0469 Q442.1563,1830.0469 442.75,1829.7813 Q443.3438,1829.5 443.9688,1828.9219 L443.9688,1831.6406 Z " fill="#000000"/><text fill="#000000" font-family="sans-serif" font-size="14" lengthAdjust="spacing" textLength="108" x="455" y="1830.8467">ImporterFactory</text></g><!--class Stats--><g id="elem_Stats"><rect codeLine="126" fill="#F1F1F1" height="40.2656" id="Stats" rx="2.5" ry="2.5" style="stroke:#181818;stroke-width:0.5;" width="70" x="461" y="1360"/><ellipse cx="476" cy="1380.1328" fill="#FF7700" rx="11" ry="11" style="stroke:#181818;stroke-width:1.0;"/><path d="M476.8438,1386.8828 L474.3906,1386.8828 L474.3906,1376.6328 L471.25,1376.6328 L471.25,1374.4922 L479.9844,1374.4922 L479.9844,1376.6328 L476.8438,1376.6328 L476.8438,1386.8828 Z " fill="#000000"/><text fill="#000000" font-family="sans-serif" font-size="12" font-style="italic" lengthAdjust="spacing" textLength="42" x="488" y="1376.1387">&#171;Trait&#187;</text><text fill="#000000" font-family="sans-serif" font-size="14" lengthAdjust="spacing" textLength="35" x="491.5" y="1391.9639">Stats</text></g><!--class ValueNormalizers--><g id="elem_ValueNormalizers"><rect codeLine="129" fill="#F1F1F1" height="40.2656" id="ValueNormalizers" rx="2.5" ry="2.5" style="stroke:#181818;stroke-width:0.5;" width="151" x="420.5" y="1285"/><ellipse cx="435.5" cy="1305.1328" fill="#FF7700" rx="11" ry="11" style="stroke:#181818;stroke-width:1.0;"/><path d="M436.3438,1311.8828 L433.8906,1311.8828 L433.8906,1301.6328 L430.75,1301.6328 L430.75,1299.4922 L439.4844,1299.4922 L439.4844,1301.6328 L436.3438,1301.6328 L436.3438,1311.8828 Z " fill="#000000"/><text fill="#000000" font-family="sans-serif" font-size="12" font-style="italic" lengthAdjust="spacing" textLength="42" x="488" y="1301.1387">&#171;Trait&#187;</text><text fill="#000000" font-family="sans-serif" font-size="14" lengthAdjust="spacing" textLength="119" x="449.5" y="1316.9639">ValueNormalizers</text></g><!--class AbstractSourceReader--><g id="elem_AbstractSourceReader"><rect codeLine="132" fill="#F1F1F1" height="32" id="AbstractSourceReader" rx="2.5" ry="2.5" style="stroke:#181818;stroke-width:0.5;" width="188" x="402" y="1609"/><ellipse cx="417" cy="1625" fill="#ADD1B2" rx="11" ry="11" style="stroke:#181818;stroke-width:1.0;"/><path d="M419.9688,1630.6406 Q419.3906,1630.9375 418.75,1631.0781 Q418.1094,1631.2344 417.4063,1631.2344 Q414.9063,1631.2344 413.5781,1629.5938 Q412.2656,1627.9375 412.2656,1624.8125 Q412.2656,1621.6875 413.5781,1620.0313 Q414.9063,1618.375 417.4063,1618.375 Q418.1094,1618.375 418.75,1618.5313 Q419.4063,1618.6875 419.9688,1618.9844 L419.9688,1621.7031 Q419.3438,1621.125 418.75,1620.8594 Q418.1563,1620.5781 417.5313,1620.5781 Q416.1875,1620.5781 415.5,1621.6563 Q414.8125,1622.7188 414.8125,1624.8125 Q414.8125,1626.9063 415.5,1627.9844 Q416.1875,1629.0469 417.5313,1629.0469 Q418.1563,1629.0469 418.75,1628.7813 Q419.3438,1628.5 419.9688,1627.9219 L419.9688,1630.6406 Z " fill="#000000"/><text fill="#000000" font-family="sans-serif" font-size="14" lengthAdjust="spacing" textLength="156" x="431" y="1629.8467">AbstractSourceReader</text></g><!--class PhpSpreadSheetSourceReader--><g id="elem_PhpSpreadSheetSourceReader"><rect codeLine="135" fill="#F1F1F1" height="32" id="PhpSpreadSheetSourceReader" rx="2.5" ry="2.5" style="stroke:#181818;stroke-width:0.5;" width="248" x="688.5" y="1542"/><ellipse cx="703.5" cy="1558" fill="#ADD1B2" rx="11" ry="11" style="stroke:#181818;stroke-width:1.0;"/><path d="M706.4688,1563.6406 Q705.8906,1563.9375 705.25,1564.0781 Q704.6094,1564.2344 703.9063,1564.2344 Q701.4063,1564.2344 700.0781,1562.5938 Q698.7656,1560.9375 698.7656,1557.8125 Q698.7656,1554.6875 700.0781,1553.0313 Q701.4063,1551.375 703.9063,1551.375 Q704.6094,1551.375 705.25,1551.5313 Q705.9063,1551.6875 706.4688,1551.9844 L706.4688,1554.7031 Q705.8438,1554.125 705.25,1553.8594 Q704.6563,1553.5781 704.0313,1553.5781 Q702.6875,1553.5781 702,1554.6563 Q701.3125,1555.7188 701.3125,1557.8125 Q701.3125,1559.9063 702,1560.9844 Q702.6875,1562.0469 704.0313,1562.0469 Q704.6563,1562.0469 705.25,1561.7813 Q705.8438,1561.5 706.4688,1560.9219 L706.4688,1563.6406 Z " fill="#000000"/><text fill="#000000" font-family="sans-serif" font-size="14" lengthAdjust="spacing" textLength="216" x="717.5" y="1562.8467">PhpSpreadSheetSourceReader</text></g><!--class ISourceReader--><g id="elem_ISourceReader"><rect codeLine="144" fill="#F1F1F1" height="32" id="ISourceReader" rx="2.5" ry="2.5" style="stroke:#181818;stroke-width:0.5;" width="134" x="429" y="1475"/><ellipse cx="444" cy="1491" fill="#B4A7E5" rx="11" ry="11" style="stroke:#181818;stroke-width:1.0;"/><path d="M439.9219,1486.7656 L439.9219,1484.6094 L447.3125,1484.6094 L447.3125,1486.7656 L444.8438,1486.7656 L444.8438,1494.8438 L447.3125,1494.8438 L447.3125,1497 L439.9219,1497 L439.9219,1494.8438 L442.3906,1494.8438 L442.3906,1486.7656 L439.9219,1486.7656 Z " fill="#000000"/><text fill="#000000" font-family="sans-serif" font-size="14" font-style="italic" lengthAdjust="spacing" textLength="102" x="458" y="1495.8467">ISourceReader</text></g><!--class ICanUseFilePathSourceReader--><g id="elem_ICanUseFilePathSourceReader"><rect codeLine="141" fill="#F1F1F1" height="32" id="ICanUseFilePathSourceReader" rx="2.5" ry="2.5" style="stroke:#181818;stroke-width:0.5;" width="242" x="375" y="1542"/><ellipse cx="390" cy="1558" fill="#B4A7E5" rx="11" ry="11" style="stroke:#181818;stroke-width:1.0;"/><path d="M385.9219,1553.7656 L385.9219,1551.6094 L393.3125,1551.6094 L393.3125,1553.7656 L390.8438,1553.7656 L390.8438,1561.8438 L393.3125,1561.8438 L393.3125,1564 L385.9219,1564 L385.9219,1561.8438 L388.3906,1561.8438 L388.3906,1553.7656 L385.9219,1553.7656 Z " fill="#000000"/><text fill="#000000" font-family="sans-serif" font-size="14" font-style="italic" lengthAdjust="spacing" textLength="210" x="404" y="1562.8467">ICanUseFilePathSourceReader</text></g><!--class ICanUseBinarySourceReader--><g id="elem_ICanUseBinarySourceReader"><rect codeLine="138" fill="#F1F1F1" height="32" id="ICanUseBinarySourceReader" rx="2.5" ry="2.5" style="stroke:#181818;stroke-width:0.5;" width="230" x="381" y="1676"/><ellipse cx="396" cy="1692" fill="#B4A7E5" rx="11" ry="11" style="stroke:#181818;stroke-width:1.0;"/><path d="M391.9219,1687.7656 L391.9219,1685.6094 L399.3125,1685.6094 L399.3125,1687.7656 L396.8438,1687.7656 L396.8438,1695.8438 L399.3125,1695.8438 L399.3125,1698 L391.9219,1698 L391.9219,1695.8438 L394.3906,1695.8438 L394.3906,1687.7656 L391.9219,1687.7656 Z " fill="#000000"/><text fill="#000000" font-family="sans-serif" font-size="14" font-style="italic" lengthAdjust="spacing" textLength="198" x="410" y="1696.8467">ICanUseBinarySourceReader</text></g><!--class AgencyRepository--><g id="elem_AgencyRepository"><rect codeLine="147" fill="#F1F1F1" height="32" id="AgencyRepository" rx="2.5" ry="2.5" style="stroke:#181818;stroke-width:0.5;" width="157" x="1260.5" y="2158"/><ellipse cx="1275.5" cy="2174" fill="#ADD1B2" rx="11" ry="11" style="stroke:#181818;stroke-width:1.0;"/><path d="M1278.4688,2179.6406 Q1277.8906,2179.9375 1277.25,2180.0781 Q1276.6094,2180.2344 1275.9063,2180.2344 Q1273.4063,2180.2344 1272.0781,2178.5938 Q1270.7656,2176.9375 1270.7656,2173.8125 Q1270.7656,2170.6875 1272.0781,2169.0313 Q1273.4063,2167.375 1275.9063,2167.375 Q1276.6094,2167.375 1277.25,2167.5313 Q1277.9063,2167.6875 1278.4688,2167.9844 L1278.4688,2170.7031 Q1277.8438,2170.125 1277.25,2169.8594 Q1276.6563,2169.5781 1276.0313,2169.5781 Q1274.6875,2169.5781 1274,2170.6563 Q1273.3125,2171.7188 1273.3125,2173.8125 Q1273.3125,2175.9063 1274,2176.9844 Q1274.6875,2178.0469 1276.0313,2178.0469 Q1276.6563,2178.0469 1277.25,2177.7813 Q1277.8438,2177.5 1278.4688,2176.9219 L1278.4688,2179.6406 Z " fill="#000000"/><text fill="#000000" font-family="sans-serif" font-size="14" lengthAdjust="spacing" textLength="125" x="1289.5" y="2178.8467">AgencyRepository</text></g><!--class BaseRepository--><g id="elem_BaseRepository"><rect codeLine="150" fill="#F1F1F1" height="32" id="BaseRepository" rx="2.5" ry="2.5" style="stroke:#181818;stroke-width:0.5;" width="141" x="1031.5" y="2024"/><ellipse cx="1046.5" cy="2040" fill="#A9DCDF" rx="11" ry="11" style="stroke:#181818;stroke-width:1.0;"/><path d="M1046.6094,2035.3438 L1045.4531,2040.4219 L1047.7813,2040.4219 L1046.6094,2035.3438 Z M1045.125,2033.1094 L1048.1094,2033.1094 L1051.4688,2045.5 L1049.0156,2045.5 L1048.25,2042.4375 L1044.9688,2042.4375 L1044.2188,2045.5 L1041.7813,2045.5 L1045.125,2033.1094 Z " fill="#000000"/><text fill="#000000" font-family="sans-serif" font-size="14" font-style="italic" lengthAdjust="spacing" textLength="109" x="1060.5" y="2044.8467">BaseRepository</text></g><!--class IRepository--><g id="elem_IRepository"><rect codeLine="168" fill="#F1F1F1" height="32" id="IRepository" rx="2.5" ry="2.5" style="stroke:#181818;stroke-width:0.5;" width="109" x="758" y="1957"/><ellipse cx="773" cy="1973" fill="#B4A7E5" rx="11" ry="11" style="stroke:#181818;stroke-width:1.0;"/><path d="M768.9219,1968.7656 L768.9219,1966.6094 L776.3125,1966.6094 L776.3125,1968.7656 L773.8438,1968.7656 L773.8438,1976.8438 L776.3125,1976.8438 L776.3125,1979 L768.9219,1979 L768.9219,1976.8438 L771.3906,1976.8438 L771.3906,1968.7656 L768.9219,1968.7656 Z " fill="#000000"/><text fill="#000000" font-family="sans-serif" font-size="14" font-style="italic" lengthAdjust="spacing" textLength="77" x="787" y="1977.8467">IRepository</text></g><!--class IFieldsOfFilterBy--><g id="elem_IFieldsOfFilterBy"><rect codeLine="165" fill="#F1F1F1" height="32" id="IFieldsOfFilterBy" rx="2.5" ry="2.5" style="stroke:#181818;stroke-width:0.5;" width="140" x="742.5" y="2024"/><ellipse cx="757.5" cy="2040" fill="#B4A7E5" rx="11" ry="11" style="stroke:#181818;stroke-width:1.0;"/><path d="M753.4219,2035.7656 L753.4219,2033.6094 L760.8125,2033.6094 L760.8125,2035.7656 L758.3438,2035.7656 L758.3438,2043.8438 L760.8125,2043.8438 L760.8125,2046 L753.4219,2046 L753.4219,2043.8438 L755.8906,2043.8438 L755.8906,2035.7656 L753.4219,2035.7656 Z " fill="#000000"/><text fill="#000000" font-family="sans-serif" font-size="14" font-style="italic" lengthAdjust="spacing" textLength="108" x="771.5" y="2044.8467">IFieldsOfFilterBy</text></g><!--class ContactRepository--><g id="elem_ContactRepository"><rect codeLine="153" fill="#F1F1F1" height="32" id="ContactRepository" rx="2.5" ry="2.5" style="stroke:#181818;stroke-width:0.5;" width="160" x="1259" y="2091"/><ellipse cx="1274" cy="2107" fill="#ADD1B2" rx="11" ry="11" style="stroke:#181818;stroke-width:1.0;"/><path d="M1276.9688,2112.6406 Q1276.3906,2112.9375 1275.75,2113.0781 Q1275.1094,2113.2344 1274.4063,2113.2344 Q1271.9063,2113.2344 1270.5781,2111.5938 Q1269.2656,2109.9375 1269.2656,2106.8125 Q1269.2656,2103.6875 1270.5781,2102.0313 Q1271.9063,2100.375 1274.4063,2100.375 Q1275.1094,2100.375 1275.75,2100.5313 Q1276.4063,2100.6875 1276.9688,2100.9844 L1276.9688,2103.7031 Q1276.3438,2103.125 1275.75,2102.8594 Q1275.1563,2102.5781 1274.5313,2102.5781 Q1273.1875,2102.5781 1272.5,2103.6563 Q1271.8125,2104.7188 1271.8125,2106.8125 Q1271.8125,2108.9063 1272.5,2109.9844 Q1273.1875,2111.0469 1274.5313,2111.0469 Q1275.1563,2111.0469 1275.75,2110.7813 Q1276.3438,2110.5 1276.9688,2109.9219 L1276.9688,2112.6406 Z " fill="#000000"/><text fill="#000000" font-family="sans-serif" font-size="14" lengthAdjust="spacing" textLength="128" x="1288" y="2111.8467">ContactRepository</text></g><!--class EstateRepository--><g id="elem_EstateRepository"><rect codeLine="156" fill="#F1F1F1" height="32" id="EstateRepository" rx="2.5" ry="2.5" style="stroke:#181818;stroke-width:0.5;" width="150" x="1264" y="2024"/><ellipse cx="1279" cy="2040" fill="#ADD1B2" rx="11" ry="11" style="stroke:#181818;stroke-width:1.0;"/><path d="M1281.9688,2045.6406 Q1281.3906,2045.9375 1280.75,2046.0781 Q1280.1094,2046.2344 1279.4063,2046.2344 Q1276.9063,2046.2344 1275.5781,2044.5938 Q1274.2656,2042.9375 1274.2656,2039.8125 Q1274.2656,2036.6875 1275.5781,2035.0313 Q1276.9063,2033.375 1279.4063,2033.375 Q1280.1094,2033.375 1280.75,2033.5313 Q1281.4063,2033.6875 1281.9688,2033.9844 L1281.9688,2036.7031 Q1281.3438,2036.125 1280.75,2035.8594 Q1280.1563,2035.5781 1279.5313,2035.5781 Q1278.1875,2035.5781 1277.5,2036.6563 Q1276.8125,2037.7188 1276.8125,2039.8125 Q1276.8125,2041.9063 1277.5,2042.9844 Q1278.1875,2044.0469 1279.5313,2044.0469 Q1280.1563,2044.0469 1280.75,2043.7813 Q1281.3438,2043.5 1281.9688,2042.9219 L1281.9688,2045.6406 Z " fill="#000000"/><text fill="#000000" font-family="sans-serif" font-size="14" lengthAdjust="spacing" textLength="118" x="1293" y="2044.8467">EstateRepository</text></g><!--class ItemNotFoundException--><g id="elem_ItemNotFoundException"><rect codeLine="159" fill="#F1F1F1" height="32" id="ItemNotFoundException" rx="2.5" ry="2.5" style="stroke:#181818;stroke-width:0.5;" width="198" x="713.5" y="2091"/><ellipse cx="728.5" cy="2107" fill="#ADD1B2" rx="11" ry="11" style="stroke:#181818;stroke-width:1.0;"/><path d="M731.4688,2112.6406 Q730.8906,2112.9375 730.25,2113.0781 Q729.6094,2113.2344 728.9063,2113.2344 Q726.4063,2113.2344 725.0781,2111.5938 Q723.7656,2109.9375 723.7656,2106.8125 Q723.7656,2103.6875 725.0781,2102.0313 Q726.4063,2100.375 728.9063,2100.375 Q729.6094,2100.375 730.25,2100.5313 Q730.9063,2100.6875 731.4688,2100.9844 L731.4688,2103.7031 Q730.8438,2103.125 730.25,2102.8594 Q729.6563,2102.5781 729.0313,2102.5781 Q727.6875,2102.5781 727,2103.6563 Q726.3125,2104.7188 726.3125,2106.8125 Q726.3125,2108.9063 727,2109.9844 Q727.6875,2111.0469 729.0313,2111.0469 Q729.6563,2111.0469 730.25,2110.7813 Q730.8438,2110.5 731.4688,2109.9219 L731.4688,2112.6406 Z " fill="#000000"/><text fill="#000000" font-family="sans-serif" font-size="14" lengthAdjust="spacing" textLength="166" x="742.5" y="2111.8467">ItemNotFoundException</text></g><!--class ManagerRepository--><g id="elem_ManagerRepository"><rect codeLine="162" fill="#F1F1F1" height="32" id="ManagerRepository" rx="2.5" ry="2.5" style="stroke:#181818;stroke-width:0.5;" width="166" x="1256" y="1957"/><ellipse cx="1271" cy="1973" fill="#ADD1B2" rx="11" ry="11" style="stroke:#181818;stroke-width:1.0;"/><path d="M1273.9688,1978.6406 Q1273.3906,1978.9375 1272.75,1979.0781 Q1272.1094,1979.2344 1271.4063,1979.2344 Q1268.9063,1979.2344 1267.5781,1977.5938 Q1266.2656,1975.9375 1266.2656,1972.8125 Q1266.2656,1969.6875 1267.5781,1968.0313 Q1268.9063,1966.375 1271.4063,1966.375 Q1272.1094,1966.375 1272.75,1966.5313 Q1273.4063,1966.6875 1273.9688,1966.9844 L1273.9688,1969.7031 Q1273.3438,1969.125 1272.75,1968.8594 Q1272.1563,1968.5781 1271.5313,1968.5781 Q1270.1875,1968.5781 1269.5,1969.6563 Q1268.8125,1970.7188 1268.8125,1972.8125 Q1268.8125,1974.9063 1269.5,1975.9844 Q1270.1875,1977.0469 1271.5313,1977.0469 Q1272.1563,1977.0469 1272.75,1976.7813 Q1273.3438,1976.5 1273.9688,1975.9219 L1273.9688,1978.6406 Z " fill="#000000"/><text fill="#000000" font-family="sans-serif" font-size="14" lengthAdjust="spacing" textLength="134" x="1285" y="1977.8467">ManagerRepository</text></g><!--class Command--><g id="elem_Command"><rect fill="#F1F1F1" height="32" id="Command" rx="2.5" ry="2.5" style="stroke:#181818;stroke-width:0.5;" width="103" x="94" y="219"/><ellipse cx="109" cy="235" fill="#ADD1B2" rx="11" ry="11" style="stroke:#181818;stroke-width:1.0;"/><path d="M111.9688,240.6406 Q111.3906,240.9375 110.75,241.0781 Q110.1094,241.2344 109.4063,241.2344 Q106.9063,241.2344 105.5781,239.5938 Q104.2656,237.9375 104.2656,234.8125 Q104.2656,231.6875 105.5781,230.0313 Q106.9063,228.375 109.4063,228.375 Q110.1094,228.375 110.75,228.5313 Q111.4063,228.6875 111.9688,228.9844 L111.9688,231.7031 Q111.3438,231.125 110.75,230.8594 Q110.1563,230.5781 109.5313,230.5781 Q108.1875,230.5781 107.5,231.6563 Q106.8125,232.7188 106.8125,234.8125 Q106.8125,236.9063 107.5,237.9844 Q108.1875,239.0469 109.5313,239.0469 Q110.1563,239.0469 110.75,238.7813 Q111.3438,238.5 111.9688,237.9219 L111.9688,240.6406 Z " fill="#000000"/><text fill="#000000" font-family="sans-serif" font-size="14" lengthAdjust="spacing" textLength="71" x="123" y="239.8467">Command</text></g><!--class AbstractRule--><g id="elem_AbstractRule"><rect fill="#F1F1F1" height="32" id="AbstractRule" rx="2.5" ry="2.5" style="stroke:#181818;stroke-width:0.5;" width="120" x="85.5" y="996"/><ellipse cx="100.5" cy="1012" fill="#ADD1B2" rx="11" ry="11" style="stroke:#181818;stroke-width:1.0;"/><path d="M103.4688,1017.6406 Q102.8906,1017.9375 102.25,1018.0781 Q101.6094,1018.2344 100.9063,1018.2344 Q98.4063,1018.2344 97.0781,1016.5938 Q95.7656,1014.9375 95.7656,1011.8125 Q95.7656,1008.6875 97.0781,1007.0313 Q98.4063,1005.375 100.9063,1005.375 Q101.6094,1005.375 102.25,1005.5313 Q102.9063,1005.6875 103.4688,1005.9844 L103.4688,1008.7031 Q102.8438,1008.125 102.25,1007.8594 Q101.6563,1007.5781 101.0313,1007.5781 Q99.6875,1007.5781 99,1008.6563 Q98.3125,1009.7188 98.3125,1011.8125 Q98.3125,1013.9063 99,1014.9844 Q99.6875,1016.0469 101.0313,1016.0469 Q101.6563,1016.0469 102.25,1015.7813 Q102.8438,1015.5 103.4688,1014.9219 L103.4688,1017.6406 Z " fill="#000000"/><text fill="#000000" font-family="sans-serif" font-size="14" lengthAdjust="spacing" textLength="88" x="114.5" y="1016.8467">AbstractRule</text></g><!--class Exception--><g id="elem_Exception"><rect fill="#F1F1F1" height="32" id="Exception" rx="2.5" ry="2.5" style="stroke:#181818;stroke-width:0.5;" width="100" x="95.5" y="7"/><ellipse cx="110.5" cy="23" fill="#ADD1B2" rx="11" ry="11" style="stroke:#181818;stroke-width:1.0;"/><path d="M113.4688,28.6406 Q112.8906,28.9375 112.25,29.0781 Q111.6094,29.2344 110.9063,29.2344 Q108.4063,29.2344 107.0781,27.5938 Q105.7656,25.9375 105.7656,22.8125 Q105.7656,19.6875 107.0781,18.0313 Q108.4063,16.375 110.9063,16.375 Q111.6094,16.375 112.25,16.5313 Q112.9063,16.6875 113.4688,16.9844 L113.4688,19.7031 Q112.8438,19.125 112.25,18.8594 Q111.6563,18.5781 111.0313,18.5781 Q109.6875,18.5781 109,19.6563 Q108.3125,20.7188 108.3125,22.8125 Q108.3125,24.9063 109,25.9844 Q109.6875,27.0469 111.0313,27.0469 Q111.6563,27.0469 112.25,26.7813 Q112.8438,26.5 113.4688,25.9219 L113.4688,28.6406 Z " fill="#000000"/><text fill="#000000" font-family="sans-serif" font-size="14" lengthAdjust="spacing" textLength="68" x="124.5" y="27.8467">Exception</text></g><!--reverse link Exception to Exception--><g id="link_Exception_Exception"><path d="M213.57,23 C255.66,23 291,23 291,23 C291,23 291,2070 291,2070 C291,2070 385.16,2070 445.85,2070 " fill="none" id="Exception-backto-Exception" style="stroke:#516F42;stroke-width:1.0;"/><polygon fill="none" points="195.57,23,213.57,29,213.57,17,195.57,23" style="stroke:#516F42;stroke-width:1.0;"/></g><!--reverse link Exception to UnsupportedFeatureException--><g id="link_Exception_UnsupportedFeatureException"><path d="M540,2035.71 C540,1991.4 540,1890 540,1890 C540,1890 617.76,1890 690.2,1890 " fill="none" id="Exception-backto-UnsupportedFeatureException" style="stroke:#516F42;stroke-width:1.0;"/><polygon fill="none" points="540,2053.71,546,2035.71,534,2035.71,540,2053.71" style="stroke:#516F42;stroke-width:1.0;"/></g><!--reverse link Command to CreateDatabaseCommand--><g id="link_Command_CreateDatabaseCommand"><path d="M215.2,229.67 C288.28,229.67 395,229.67 395,229.67 C395,229.67 395,202.47 395,184.2 " fill="none" id="Command-backto-CreateDatabaseCommand" style="stroke:#516F42;stroke-width:1.0;"/><polygon fill="none" points="197.2,229.67,215.2,235.67,215.2,223.67,197.2,229.67" style="stroke:#516F42;stroke-width:1.0;"/></g><!--reverse link Command to ImportEstateCommand--><g id="link_Command_ImportEstateCommand"><path d="M215.22,240.33 C268.54,240.33 334.9,240.33 400.4,240.33 " fill="none" id="Command-backto-ImportEstateCommand" style="stroke:#516F42;stroke-width:1.0;"/><polygon fill="none" points="197.22,240.33,215.22,246.33,215.22,234.33,197.22,240.33" style="stroke:#516F42;stroke-width:1.0;"/></g><!--reverse link AbstractDatabase to PostgreSqlDatabase--><g id="link_AbstractDatabase_PostgreSqlDatabase"><path d="M873,2514.8 C873,2496.53 873,2487.33 873,2487.33 C873,2487.33 950.58,2487.33 1015.42,2487.33 " fill="none" id="AbstractDatabase-backto-PostgreSqlDatabase" style="stroke:#516F42;stroke-width:1.0;"/><polygon fill="none" points="873,2532.8,879,2514.8,867,2514.8,873,2532.8" style="stroke:#516F42;stroke-width:1.0;"/></g><!--reverse link ILessQL to PostgreSqlDatabase--><g id="link_ILessQL_PostgreSqlDatabase"><path d="M873.24,2415 C933.99,2415 1020,2415 1020,2415 C1020,2415 1020,2445.95 1020,2465.78 " fill="none" id="ILessQL-backto-PostgreSqlDatabase" style="stroke:#516F42;stroke-width:1.0;stroke-dasharray:7.0,7.0;"/><polygon fill="none" points="855.24,2415,873.24,2421,873.24,2409,855.24,2415" style="stroke:#516F42;stroke-width:1.0;"/></g><!--reverse link IPDOAble to PostgreSqlDatabase--><g id="link_IPDOAble_PostgreSqlDatabase"><path d="M878.63,2476.67 C920.67,2476.67 964.73,2476.67 1015.4,2476.67 " fill="none" id="IPDOAble-backto-PostgreSqlDatabase" style="stroke:#516F42;stroke-width:1.0;stroke-dasharray:7.0,7.0;"/><polygon fill="none" points="860.63,2476.67,878.63,2482.67,878.63,2470.67,860.63,2476.67" style="stroke:#516F42;stroke-width:1.0;"/></g><!--reverse link Exception to UnsupportedConnectionException--><g id="link_Exception_UnsupportedConnectionException"><path d="M564.11,2076 C619.5,2076 683,2076 683,2076 C683,2076 683,2509.99 683,2599.84 " fill="none" id="Exception-backto-UnsupportedConnectionException" style="stroke:#516F42;stroke-width:1.0;"/><polygon fill="none" points="546.11,2076,564.11,2082,564.11,2070,546.11,2076" style="stroke:#516F42;stroke-width:1.0;"/></g><!--reverse link Resource to AgenciesController--><g id="link_Resource_AgenciesController"><path codeLine="59" d="M551.6,608 C560.49,608 561,608 561,608 C561,608 561,778.67 561,778.67 C561,778.67 657.41,778.67 730.85,778.67 " fill="none" id="Resource-backto-AgenciesController" style="stroke:#516F42;stroke-width:1.0;"/><polygon fill="#516F42" points="545.6,608,554.6,612,550.6,608,554.6,604,545.6,608" style="stroke:#516F42;stroke-width:1.0;"/><text fill="#000000" font-family="sans-serif" font-size="13" lengthAdjust="spacing" textLength="30" x="530" y="783.6169">uses</text></g><!--reverse link ApiController to AgenciesController--><g id="link_ApiController_AgenciesController"><path d="M496,786.05 C496,796.17 496,789.33 496,789.33 C496,789.33 637.22,789.33 730.99,789.33 " fill="none" id="ApiController-backto-AgenciesController" style="stroke:#516F42;stroke-width:1.0;"/><polygon fill="none" points="496,768.05,490,786.05,502,786.05,496,768.05" style="stroke:#516F42;stroke-width:1.0;"/></g><!--reverse link Resource to ContactsController--><g id="link_Resource_ContactsController"><path codeLine="66" d="M551.76,617 C551.76,617 550,711.67 550,711.67 C550,711.67 654.79,711.67 731.96,711.67 " fill="none" id="Resource-backto-ContactsController" style="stroke:#516F42;stroke-width:1.0;"/><polygon fill="#516F42" points="545.76,617,554.76,621,550.76,617,554.76,613,545.76,617" style="stroke:#516F42;stroke-width:1.0;"/><text fill="#000000" font-family="sans-serif" font-size="13" lengthAdjust="spacing" textLength="30" x="560.53" y="724.7369">uses</text></g><!--reverse link ApiController to ContactsController--><g id="link_ApiController_ContactsController"><path d="M554,717.78 C554,717.78 655.93,722.33 731.77,722.33 " fill="none" id="ApiController-backto-ContactsController" style="stroke:#516F42;stroke-width:1.0;"/><polygon fill="none" points="554,735.78,560,717.78,548,717.78,554,735.78" style="stroke:#516F42;stroke-width:1.0;"/></g><!--reverse link Resource to EstatesController--><g id="link_Resource_EstatesController"><path codeLine="70" d="M496,632.23 C496,640.87 496,643 496,643 C496,643 643.06,643 736.69,643 " fill="none" id="Resource-backto-EstatesController" style="stroke:#516F42;stroke-width:1.0;"/><polygon fill="#516F42" points="496,626.23,492,635.23,496,631.23,500,635.23,496,626.23" style="stroke:#516F42;stroke-width:1.0;"/><text fill="#000000" font-family="sans-serif" font-size="13" lengthAdjust="spacing" textLength="30" x="576.96" y="656.0669">uses</text></g><!--reverse link ApiController to EstatesController--><g id="link_ApiController_EstatesController"><path d="M552,717.93 C552,689.67 552,652 552,652 C552,652 659.89,652 736.8,652 " fill="none" id="ApiController-backto-EstatesController" style="stroke:#516F42;stroke-width:1.0;"/><polygon fill="none" points="552,735.93,558,717.93,546,717.93,552,735.93" style="stroke:#516F42;stroke-width:1.0;"/></g><!--reverse link Resource to ManagersController--><g id="link_Resource_ManagersController"><path codeLine="77" d="M551.8,590.33 C600.81,590.33 670.54,590.33 728.81,590.33 " fill="none" id="Resource-backto-ManagersController" style="stroke:#516F42;stroke-width:1.0;"/><polygon fill="#516F42" points="545.8,590.33,554.8,594.33,550.8,590.33,554.8,586.33,545.8,590.33" style="stroke:#516F42;stroke-width:1.0;"/><text fill="#000000" font-family="sans-serif" font-size="13" lengthAdjust="spacing" textLength="30" x="606.3" y="603.3969">uses</text></g><!--reverse link ApiController to ManagersController--><g id="link_ApiController_ManagersController"><path d="M548,717.76 C548,677.56 548,594.67 548,594.67 C548,594.67 651.32,594.67 728.81,594.67 " fill="none" id="ApiController-backto-ManagersController" style="stroke:#516F42;stroke-width:1.0;"/><polygon fill="none" points="548,735.76,554,717.76,542,717.76,548,735.76" style="stroke:#516F42;stroke-width:1.0;"/></g><!--reverse link RestIndexRequest to AgencyIndexRequest--><g id="link_RestIndexRequest_AgencyIndexRequest"><path d="M813,1114.21 C813,1128.64 813,1129.5 813,1129.5 C813,1129.5 927.31,1129.5 1012.14,1129.5 " fill="none" id="RestIndexRequest-backto-AgencyIndexRequest" style="stroke:#516F42;stroke-width:1.0;"/><polygon fill="none" points="813,1096.21,807,1114.21,819,1114.21,813,1096.21" style="stroke:#516F42;stroke-width:1.0;"/></g><!--reverse link RestIndexRequest to ContactIndexRequest--><g id="link_RestIndexRequest_ContactIndexRequest"><path d="M910.76,1073 C947.4,1073 972.98,1073 1010.86,1073 " fill="none" id="RestIndexRequest-backto-ContactIndexRequest" style="stroke:#516F42;stroke-width:1.0;"/><polygon fill="none" points="892.76,1073,910.76,1079,910.76,1067,892.76,1073" style="stroke:#516F42;stroke-width:1.0;"/></g><!--reverse link RestIndexRequest to EstateIndexRequest--><g id="link_RestIndexRequest_EstateIndexRequest"><path d="M910.63,1070 C938.54,1070 945,1070 945,1070 C945,1070 945,1003 945,1003 C945,1003 979.21,1003 1015.69,1003 " fill="none" id="RestIndexRequest-backto-EstateIndexRequest" style="stroke:#516F42;stroke-width:1.0;"/><polygon fill="none" points="892.63,1070,910.63,1076,910.63,1064,892.63,1070" style="stroke:#516F42;stroke-width:1.0;"/></g><!--reverse link RestIndexRequest to ManagerIndexRequest--><g id="link_RestIndexRequest_ManagerIndexRequest"><path d="M910.79,1067 C936.76,1067 941,1067 941,1067 C941,1067 941,926 941,926 C941,926 972.65,926 1007.88,926 " fill="none" id="RestIndexRequest-backto-ManagerIndexRequest" style="stroke:#516F42;stroke-width:1.0;"/><polygon fill="none" points="892.79,1067,910.79,1073,910.79,1061,892.79,1067" style="stroke:#516F42;stroke-width:1.0;"/></g><!--reverse link BaseRequest to RestIndexRequest--><g id="link_BaseRequest_RestIndexRequest"><path d="M577.29,1092 C627.08,1092 678.77,1092 732.44,1092 " fill="none" id="BaseRequest-backto-RestIndexRequest" style="stroke:#516F42;stroke-width:1.0;"/><polygon fill="none" points="559.29,1092,577.29,1098,577.29,1086,559.29,1092" style="stroke:#516F42;stroke-width:1.0;"/></g><!--reverse link BaseRequest to RestShowRequest--><g id="link_BaseRequest_RestShowRequest"><path d="M577.4,1088 C590.29,1088 582,1088 582,1088 C582,1088 582,1012.5 582,1012.5 C582,1012.5 665.41,1012.5 731.88,1012.5 " fill="none" id="BaseRequest-backto-RestShowRequest" style="stroke:#516F42;stroke-width:1.0;"/><polygon fill="none" points="559.4,1088,577.4,1094,577.4,1082,559.4,1088" style="stroke:#516F42;stroke-width:1.0;"/></g><!--reverse link AbstractRule to ExistsInDatabase--><g id="link_AbstractRule_ExistsInDatabase"><path d="M223.75,1012 C283.35,1012 356.72,1012 420.99,1012 " fill="none" id="AbstractRule-backto-ExistsInDatabase" style="stroke:#516F42;stroke-width:1.0;"/><polygon fill="none" points="205.75,1012,223.75,1018,223.75,1006,205.75,1012" style="stroke:#516F42;stroke-width:1.0;"/></g><!--reverse link Stats to AbstractImporter--><g id="link_Stats_AbstractImporter"><path codeLine="111" d="M537.08,1375 C586.97,1375 673.62,1375 738.95,1375 " fill="none" id="Stats-backto-AbstractImporter" style="stroke:#516F42;stroke-width:1.0;"/><polygon fill="#516F42" points="531.08,1375,540.08,1379,536.08,1375,540.08,1371,531.08,1375" style="stroke:#516F42;stroke-width:1.0;"/><text fill="#000000" font-family="sans-serif" font-size="13" lengthAdjust="spacing" textLength="30" x="604.02" y="1388.0669">uses</text></g><!--reverse link ValueNormalizers to EstateImporter--><g id="link_ValueNormalizers_EstateImporter"><path codeLine="115" d="M568,1331.07 C568,1339.98 568,1342.5 568,1342.5 C568,1342.5 891.49,1342.5 1034.91,1342.5 " fill="none" id="ValueNormalizers-backto-EstateImporter" style="stroke:#516F42;stroke-width:1.0;"/><polygon fill="#516F42" points="568,1325.07,564,1334.07,568,1330.07,572,1334.07,568,1325.07" style="stroke:#516F42;stroke-width:1.0;"/><text fill="#000000" font-family="sans-serif" font-size="13" lengthAdjust="spacing" textLength="30" x="761.74" y="1338.5669">uses</text></g><!--reverse link AbstractImporter to EstateImporter--><g id="link_AbstractImporter_EstateImporter"><path d="M904.3,1374.5 C990.07,1374.5 1102,1374.5 1102,1374.5 C1102,1374.5 1102,1366.87 1102,1359.12 " fill="none" id="AbstractImporter-backto-EstateImporter" style="stroke:#516F42;stroke-width:1.0;"/><polygon fill="none" points="886.3,1374.5,904.3,1380.5,904.3,1368.5,886.3,1374.5" style="stroke:#516F42;stroke-width:1.0;"/></g><!--reverse link AbstractSourceReader to PhpSpreadSheetSourceReader--><g id="link_AbstractSourceReader_PhpSpreadSheetSourceReader"><path d="M608.25,1625 C701.7,1625 813,1625 813,1625 C813,1625 813,1594.05 813,1574.22 " fill="none" id="AbstractSourceReader-backto-PhpSpreadSheetSourceReader" style="stroke:#516F42;stroke-width:1.0;"/><polygon fill="none" points="590.25,1625,608.25,1631,608.25,1619,590.25,1625" style="stroke:#516F42;stroke-width:1.0;"/></g><!--reverse link ISourceReader to PhpSpreadSheetSourceReader--><g id="link_ISourceReader_PhpSpreadSheetSourceReader"><path d="M581.1,1491 C643.54,1491 709,1491 709,1491 C709,1491 709,1521.95 709,1541.78 " fill="none" id="ISourceReader-backto-PhpSpreadSheetSourceReader" style="stroke:#516F42;stroke-width:1.0;stroke-dasharray:7.0,7.0;"/><polygon fill="none" points="563.1,1491,581.1,1497,581.1,1485,563.1,1491" style="stroke:#516F42;stroke-width:1.0;"/></g><!--reverse link ICanUseFilePathSourceReader to PhpSpreadSheetSourceReader--><g id="link_ICanUseFilePathSourceReader_PhpSpreadSheetSourceReader"><path d="M635.01,1558 C658.39,1558 664.93,1558 688.41,1558 " fill="none" id="ICanUseFilePathSourceReader-backto-PhpSpreadSheetSourceReader" style="stroke:#516F42;stroke-width:1.0;stroke-dasharray:7.0,7.0;"/><polygon fill="none" points="617.01,1558,635.01,1564,635.01,1552,617.01,1558" style="stroke:#516F42;stroke-width:1.0;"/></g><!--reverse link BaseRepository to AgencyRepository--><g id="link_BaseRepository_AgencyRepository"><path d="M1079,2074.16 C1079,2109.8 1079,2174 1079,2174 C1079,2174 1183.76,2174 1260.29,2174 " fill="none" id="BaseRepository-backto-AgencyRepository" style="stroke:#516F42;stroke-width:1.0;"/><polygon fill="none" points="1079,2056.16,1073,2074.16,1085,2074.16,1079,2056.16" style="stroke:#516F42;stroke-width:1.0;"/></g><!--reverse link IRepository to BaseRepository--><g id="link_IRepository_BaseRepository"><path d="M885.21,1978.33 C960.54,1978.33 1069,1978.33 1069,1978.33 C1069,1978.33 1069,2005.53 1069,2023.8 " fill="none" id="IRepository-backto-BaseRepository" style="stroke:#516F42;stroke-width:1.0;stroke-dasharray:7.0,7.0;"/><polygon fill="none" points="867.21,1978.33,885.21,1984.33,885.21,1972.33,867.21,1978.33" style="stroke:#516F42;stroke-width:1.0;"/></g><!--reverse link IFieldsOfFilterBy to BaseRepository--><g id="link_IFieldsOfFilterBy_BaseRepository"><path d="M900.58,2040 C945.68,2040 986.09,2040 1031.31,2040 " fill="none" id="IFieldsOfFilterBy-backto-BaseRepository" style="stroke:#516F42;stroke-width:1.0;stroke-dasharray:7.0,7.0;"/><polygon fill="none" points="882.58,2040,900.58,2046,900.58,2034,882.58,2040" style="stroke:#516F42;stroke-width:1.0;"/></g><!--reverse link BaseRepository to ContactRepository--><g id="link_BaseRepository_ContactRepository"><path d="M1126,2074.22 C1126,2094.05 1126,2107 1126,2107 C1126,2107 1198.4,2107 1258.78,2107 " fill="none" id="BaseRepository-backto-ContactRepository" style="stroke:#516F42;stroke-width:1.0;"/><polygon fill="none" points="1126,2056.22,1120,2074.22,1132,2074.22,1126,2056.22" style="stroke:#516F42;stroke-width:1.0;"/></g><!--reverse link BaseRepository to EstateRepository--><g id="link_BaseRepository_EstateRepository"><path d="M1190.79,2040 C1219.43,2040 1234.54,2040 1263.63,2040 " fill="none" id="BaseRepository-backto-EstateRepository" style="stroke:#516F42;stroke-width:1.0;"/><polygon fill="none" points="1172.79,2040,1190.79,2046,1190.79,2034,1172.79,2040" style="stroke:#516F42;stroke-width:1.0;"/></g><!--reverse link Exception to ItemNotFoundException--><g id="link_Exception_ItemNotFoundException"><path d="M564.05,2066 C632.26,2066 728,2066 728,2066 C728,2066 728,2079.34 728,2090.8 " fill="none" id="Exception-backto-ItemNotFoundException" style="stroke:#516F42;stroke-width:1.0;"/><polygon fill="none" points="546.05,2066,564.05,2072,564.05,2060,546.05,2066" style="stroke:#516F42;stroke-width:1.0;"/></g><!--reverse link BaseRepository to ManagerRepository--><g id="link_BaseRepository_ManagerRepository"><path d="M1136,2005.95 C1136,1984.64 1136,1967.67 1136,1967.67 C1136,1967.67 1199.79,1967.67 1255.85,1967.67 " fill="none" id="BaseRepository-backto-ManagerRepository" style="stroke:#516F42;stroke-width:1.0;"/><polygon fill="none" points="1136,2023.95,1142,2005.95,1130,2005.95,1136,2023.95" style="stroke:#516F42;stroke-width:1.0;"/></g><!--SRC=[jLXBJnin4Bxlhx34fPLIYLPjaIg4H08HaIYa17hAnSbEiXPUszXUoBRgV-ziig_iEo7XvFLyyytBCpOXX9Xd9XJLr2UNMiktWUHIavDldxylldvnI5vEvvQzCXlsfNP1Tm7I-VDIoq2uCNYn_gi6Np7gI-5s9a_mNMmOZxhoZOabML1km77gHPc4Cm4sL42ajfvqFEO20L_PaFZWpq0RXyF24Yk9PalF4fTfGD-aS0nO8gWFHj4vJ22Yi-ZQTEeupfnJOt1vgTHqEf1YmPRah_El8BXUpK55N0HM5eGR2RAzClv9c40fT1JS8L0RQAXYA52NQGRIzobYSQMH1gwefJDg8DxFKKr2Vo55k5PHKe2mwsYCv93If8j6IoC_yllQMBHt43jqPgp6KqAs32QXu6SiJtOglCl0oQeVC8xdiXDs48aV07ryxQZnamgwRC6EfR5B3PCNdZfUg6n3YCnN77pCNWLuT0l6_BhjbGNZg_lB6MzEKExaOLt4fWEw7ZucBEW5DacjL-suUYTlW2jiK_pIkaayzl1WhG69nDfDSrejELzZy6CEMk0gAcoWqPNpJvz8lSBb4iISWSasoGyI6315Bpgf5j9OfQHO3j_G29rq3vY8w0ETs2SH5Qhx9EA0mMp6r3wnb3NtgccRcHlfm_72Z-VKFl5Ng1ub0LbCqQM0W-Ryd7nux9qCXsTdfwSVoQEcp9ABYrtPiWpjoFS0Bm4Oc_HrE18khEBDwXHa6cZKRk5R-phJxUDut59hHCUjzdxd6grick38HkAJTcGh9PKM4xkL8sAVUFBjAEI_AMTkz2B5pO13L9SLGyb8LBmiq1E5btggXNTtgfOyCwBF_AZPFEaA3JJ1qflyVCcX4g9aAvqgrKUzIRFD3GmZW3kfVGpd3yfgF8fFQj6VEZSAy4AvslojfKsMzQ_F2l0GwQKEcy6bkdIUQXspkW_VP3rX7u2wMxdAR-z4CFRKHE4_Ckx40zYcgQzG5oVAp-bwWb7-kzSE7r3nP638E8ofzSgnbzx2hLnz9gWE3y5q6AzQwla0IXg6HvX1UcccUs6nSjlepI1CiGtNPQDUkRxRy566xLK3XWouQ-uNcB6eVyFMEECB-3s1Dh1lvjEHo4SM_3jfXz6FC7lzxB1D5z_Vxt6sT1exLQTDgs3bFm00]--></g></svg>